<?xml version="1.0" encoding="utf-8"?>
<!-- Generator: Adobe Illustrator 23.0.1, SVG Export Plug-In . SVG Version: 6.00 Build 0)  -->
<svg version="1.1" id="Layer_1" xmlns="http://www.w3.org/2000/svg" xmlns:xlink="http://www.w3.org/1999/xlink" x="0px" y="0px"
	 viewBox="0 0 400 400" style="enable-background:new 0 0 400 400;" xml:space="preserve">
<style type="text/css">
	.st0{fill:#BA5252;}
</style>
<path class="st0" d="M71.06,61.04c-1.09-1.37-2.18-2.75-3.27-4.12c0.46-0.36,0.92-0.73,1.38-1.09c3.31-1.5,6.63-3,9.94-4.51
	c0.57,0.97,1.58,1.96,1.55,2.91c-0.02,0.72-1.37,1.4-2.13,2.1c4.54-2.56,6.96-2.28,9.22,1.66c-0.44,0.38-0.88,0.76-1.32,1.14
	c-1.92-0.41-3.83-0.82-5.86-1.26c-0.08,2.3-0.13,3.68-0.17,5.05c-1.53-0.92-4.61,0.95-4.67-2.61c0.05-0.98,0.14-1.96,0.1-2.94
	c0-0.07-0.91-0.11-1.39-0.16c0.08,1,0.15,2.01,0.23,3.01C73.47,60.51,72.27,60.77,71.06,61.04z"/>
<path class="st0" d="M377.43,275.94c-2.89,6.15-5.78,12.3-8.67,18.45c-2.09,0.46-4.17,0.92-6.1,1.34c-0.47,2.87,0.49,4.18,3.13,4
	c-2.33,3.71-4.63,7.44-7.01,11.11c-2.33,3.6-4.43,7.96-10.38,2.24c3.52,7.71,3.43,7.62-1.84,12.96
	c-5.73,5.82-11.2,11.89-16.96,17.67c-1.34,1.34-3.6,1.72-5.08,2.95c-1.46,1.21-2.2,3.34-3.73,4.39
	c-7.83,5.35-15.56,10.91-23.79,15.56c-9.33,5.27-18.83,10.6-28.87,14.2c-12.04,4.33-24.72,6.86-37.13,10.17
	c-1.92-3.96-5.79-4.73-8.78-1.51c1.76,0.73,3.43,1.42,5.1,2.12c-9.49,0.72-18.98,1.43-28.54,2.16c-0.05-0.9-0.08-1.58-0.14-2.74
	c-3.55,1.07-6.91,3.08-10.73,1.96c-1.77-0.52-3.97,0.47-5.12-2.24c-0.34-0.8-3.14-0.76-4.8-0.74c-5.44,0.06-10.88,0.28-16.32,0.44
	c0.29-0.52,0.58-1.03,0.87-1.55c-0.91-2.28-1.82-4.56-2.89-7.22c-5.93,6.39-6.54,6.58-12.54,4.18c-0.75-0.3-1.95-0.89-1.97-1.39
	c-0.18-4.42-3.82-2.91-5.57-2.7c-6.95,0.83-12.3-3.05-18.18-5.39c-2.43-0.97-4.98-1.78-7.17-3.14
	c-11.31-7.01-23.06-13.47-33.62-21.48c-12.6-9.56-24.03-20.63-33.36-33.59c-0.88-1.22-0.99-2.98-1.5-4.48
	c-0.23-0.66-0.42-1.67-0.89-1.84c-7.19-2.76-8.3-10.27-12.25-15.54c3.03,0.09,6.06,0.17,9.97,0.28c-3.97-3.16-7.27-3.53-10.8-1.78
	c-1.77-3.31-4.92-6.33-1.92-11.08c-1.27,0.24-2.19,0.41-3.51,0.66c0.73-0.58,1.16-0.92,1.87-1.48c-2.79-1.9-6.69-3.34-4.3-7.94
	c-3.92-1.95-6.31-8.66-4.74-10.32c-0.9-2.29-1.55-4.04-2.29-5.76c-0.26-0.61-0.9-1.07-1.1-1.69c-6.03-18.27-8.96-37.06-8.87-56.28
	c0.01-2,1.71-3.99,2.8-6.38c-0.47-0.24-1.53-0.79-3.47-1.78c1.01-4.7,3.66-9.99,2.82-14.65c-1.47-8.18,1.96-15.36,3.43-22.6
	c2.44-12.02,7.87-23.45,12.16-35.08c1.02-2.76,2.5-5.35,3.77-8.02c0.93,0.05,1.93-0.11,2.78,0.17c3.06,1.01,6.06,2.17,9.09,3.27
	c-1.42,2.73-2.85,5.45-4.43,8.48c-1.04-0.33-2.13-0.67-3.72-1.17c0.12,1.37-0.16,2.8,0.33,3.15c2.41,1.72,1.01,3.47,0.35,5.28
	c-2.05,5.62-4.09,11.25-6.25,17.22c-0.56-0.78-0.99-1.37-2.03-2.82c-1.11,1.98-1.99,3.55-2.88,5.13c1.19,0.34,2.39,0.69,3.72,1.07
	c-1.38,7.49-3.35,15.43-4.18,23.49c-1.04,10.13-1.67,20.37-1.5,30.55c0.14,8.58,1.74,17.14,2.53,25.72
	c0.12,1.27-0.69,2.62-0.97,3.95c-0.11,0.52-0.19,1.32,0.1,1.6c5.65,5.36,4.02,13.39,7.19,19.66c0.37,0.72-0.44,2.05-0.63,2.79
	c1.02,1.29,2.33,2.37,2.9,3.76c2.01,4.9,3.52,10.01,5.69,14.83c1.57,3.47,4.01,6.53,5.82,9.91c0.88,1.65,1.2,3.6,1.65,5.05
	c2.62,3.31,5.14,6.49,7.7,9.72c-1.46,1.34-2.73,2.5-4,3.66c0.1,0.45,0.2,0.9,0.29,1.34c4.72-3.39,6.93-0.77,9.5,2.55
	c18.9,24.45,42.63,42.76,70.94,55.17c2.01,0.88,3.58,2.78,5.35,4.2c-1.96,0.78-4.01,1.39-5.84,2.4c-0.96,0.53-1.53,1.77-2.28,2.7
	c0.97,0.71,2.04,2.11,2.91,2c3.53-0.45,7-1.37,11.56-2.34c-2.67-1.97-4.56-3.37-6.44-4.76c1.23-0.22,2.6-0.89,3.68-0.57
	c4.68,1.36,9.25,3.15,13.92,4.54c12.63,3.74,25.63,5.24,38.7,6.39c2.54,0.22,4.99,1.43,8.14,2.38c1.43-2.28,4.19-3.57,7.79-1.22
	c-0.76,0.6-1.51,1.19-2.26,1.79c0.32,0.26,0.65,0.51,0.97,0.77c0.4-0.86,0.8-1.72,1.2-2.58c4.79-0.68,9.57-1.53,14.38-1.99
	c2.4-0.23,4.88,0.24,8.34,0.46c1.01-0.78,2.66-0.85,9.56,0.35c0.19-1.25,0.39-2.5,0.44-2.82c13.52-4.63,26.48-9.06,39.64-13.56
	c0.17,0.96,0.44,2.47,0.71,3.99c3.72,0.33,7.72,0.68,11.7,1.03c-0.13-3.36-0.13-3.36-6.86-8.46c4.91-3.02,9.79-5.84,14.47-8.95
	c5.25-3.49,10.25-7.34,15.51-10.82c1.98-1.31,4.37-2.03,6.84-3.13c-0.82-4.95,4.8-6.71,7.79-10.05c4.38-4.91,10.01-8.83,13.79-14.11
	c7.09-9.9,13.49-20.33,19.1-31.2c1.95-3.77,2.91-8.74,9.39-8.37c-1.1-1.09-2.2-2.18-3.81-3.78c2.53-6.21,5.36-13.01,8.01-19.88
	c0.46-1.19,0.02-2.69,0.28-4c1.28-6.45,2.62-12.89,4.05-19.31c0.11-0.49,1.05-0.79,1.61-1.18c0.49-0.06,0.99-0.11,1.48-0.16
	c-0.45-0.38-0.89-0.75-1.34-1.13c0.16-5.54,0.35-11.08,0.46-16.63c0.03-1.53-0.21-3.06-0.26-4.59c-0.28-8.64-0.31-17.3-0.9-25.92
	c-0.3-4.37-1.57-8.67-2.4-13c0.86,0.17,1.73,0.36,2.59,0.52c2.54,0.45,4.98,0.74,4.85-3.05c1.45-0.39,2.89-0.78,4.34-1.17
	c0.41,2.39,0.83,4.78,1.24,7.16c0.03,0.17,0.08,0.33,0.17,0.48c0.82,6.66,1.79,13.31,2.32,19.99c0.1,1.27-1.6,2.67-2.92,4.71
	c0.45,0.31,1.57,1.08,3.68,2.52c-0.39,6.55-0.85,14.25-1.3,21.94c-0.62-0.72-1.37-1.36-1.83-2.17c-1.51-2.64-1.47-2.66-3.62-1.96
	c-0.02,2.13-0.04,3.86-0.05,5.6c-1.14,0.77-2.28,1.54-4.43,3c2.55,1.08,4.05,1.71,5.55,2.35c0.23-1.12,0.46-2.24,0.69-3.36
	c1.1-0.96,2.2-1.91,3.3-2.87c-1.47,9.45-2.9,18.91-4.43,28.36c-0.34,2.12-0.81,4.27-1.61,6.24c-0.46,1.14-1.6,2.1-2.62,2.91
	c-1.16,0.93-2.52,1.6-3.79,2.39c1.45,0.4,2.89,0.81,4.98,1.39c-2.43,5.41-4.95,11.04-7.47,16.67c-1.52-0.46-3.03-0.93-4.55-1.39
	C374,279.82,375.77,276.91,377.43,275.94z M343.31,321.49c0.5-0.3,1.01-0.61,1.51-0.91c-0.44-0.15-0.88-0.3-1.31-0.45
	c-2.89,0.63-5.78,1.25-8.67,1.88c-0.12,0.51-0.24,1.02-0.37,1.53c2.44,1.09,4.88,2.18,6.76,3.02
	C342.19,324.21,342.75,322.85,343.31,321.49z M181.99,389.1c5.1-0.75,9.19-1.35,13.27-1.95c0.13-0.36,0.26-0.72,0.39-1.08
	c-2.51-0.71-5.05-2.02-7.53-1.94c-1.72,0.06-2.98,0.77-4.09-1.19C183.4,384.84,182.9,386.36,181.99,389.1z M207.8,382.67
	c0.02,0.91,0.04,1.81,0.06,2.72c4.13-0.35,8.26-0.69,12.4-1.04c-0.02-0.49-0.04-0.99-0.06-1.49
	C216.07,382.8,211.94,382.74,207.8,382.67z M115.89,364.75c0.42,2.29,0.81,4.48,1.21,6.67c1.06-0.92,2.69-1.65,3.06-2.79
	C120.94,366.2,120.18,364.3,115.89,364.75z M376.41,244.63c2.64,3.2,5.47,4.16,9.17,2.03C382.35,247.13,381.1,240.63,376.41,244.63z
	 M55.65,316.43c-0.09-0.33-0.18-0.65-0.27-0.98c-1.67,0.95-3.35,1.89-5.02,2.84c0.87,1.31,1.74,2.61,2.62,3.93
	C54.19,319.59,54.92,318.01,55.65,316.43z M21.08,261.3c1.72-1.37,2.89-2.29,4.56-3.61c-2.15-1.26-3.85-2.26-6.03-3.54
	C20.2,257.03,20.56,258.77,21.08,261.3z M360.12,303.94c-0.51-1.64-0.52-3.68-1.54-4.55c-1.81-1.56-4.82-0.61-6.26,1.35
	C354.51,301.65,356.73,302.56,360.12,303.94z M28.86,132.98c0.46-0.6,0.92-1.2,1.38-1.8c-1.51-1.25-3.03-2.49-4.54-3.74
	c-0.33,0.85-1.16,2.2-0.9,2.47C25.98,131.1,27.47,131.99,28.86,132.98z M17.4,204.38c-2.37-1.6-3.93-2.82-5.64-3.73
	c-0.57-0.3-1.67-0.05-2.29,0.34c-0.39,0.24-0.65,1.44-0.39,1.79c0.44,0.6,1.28,1.14,2.02,1.25C12.78,204.27,14.5,204.24,17.4,204.38
	z M25.45,136.68c0.28-0.32,0.55-0.63,0.83-0.95c-0.85-1.33-1.71-2.66-2.69-4.2c-1.01,0.94-1.69,1.57-2.62,2.44
	C22.71,135.02,24.08,135.85,25.45,136.68z M389.48,209.58c0.17-0.64,0.35-1.28,0.52-1.92c-2.1-0.56-4.2-1.12-6.3-1.68
	c-0.16,0.6-0.32,1.2-0.48,1.8C385.3,208.38,387.39,208.98,389.48,209.58z M374.56,280.37c-0.27-0.46-0.54-0.91-0.81-1.37
	c-1.02,0.64-2.05,1.27-3.07,1.91c0.24,0.4,0.48,0.8,0.71,1.2C372.45,281.53,373.51,280.95,374.56,280.37z M21.99,143.74
	c-0.41-0.31-0.82-0.61-1.23-0.92c-0.54,0.84-1.08,1.68-1.62,2.52c0.24,0.21,0.49,0.42,0.73,0.63
	C20.58,145.23,21.29,144.48,21.99,143.74z M17.18,258.29c0.32,0.6,0.42,0.97,0.66,1.18c0.18,0.16,0.54,0.1,0.82,0.14
	c-0.03-0.38,0.06-0.84-0.13-1.1C18.38,258.32,17.88,258.39,17.18,258.29z M25.25,144.78c-0.01,0.14-0.08,0.33-0.01,0.41
	c0.06,0.08,0.26,0.05,0.4,0.07c-0.02-0.18-0.05-0.36-0.07-0.54C25.47,144.73,25.36,144.76,25.25,144.78z M344.95,326.27
	c0.01-0.15,0.02-0.27,0.03-0.39c-0.19,0.04-0.39,0.05-0.55,0.13c-0.06,0.03-0.03,0.23-0.04,0.35
	C344.58,326.33,344.77,326.3,344.95,326.27z M202.02,383.91c-0.14-0.02-0.28-0.05-0.42-0.07c-0.02,0.14-0.11,0.32-0.05,0.4
	c0.06,0.08,0.3,0.12,0.39,0.07C202.02,384.26,201.99,384.05,202.02,383.91z M390.4,178c0.02-0.14,0.05-0.28,0.07-0.43
	c-0.14-0.02-0.33-0.11-0.41-0.05c-0.08,0.06-0.06,0.27-0.09,0.41C390.12,177.96,390.26,177.98,390.4,178z M61.12,316.92L60.77,317
	l0.15,0.22L61.12,316.92z"/>
<path class="st0" d="M189.36,208.97c-0.28,0.66-0.47,1.84-0.84,1.9c-5.81,0.91-5.56,6.04-7.29,9.93c-1.2,2.7-3.12,5.13-5.05,7.41
	c-0.58,0.68-2.27,0.43-3.45,0.61c-0.35-0.45-0.7-0.9-1.04-1.35c-0.16,2.17-0.31,4.34-0.48,6.5c-0.05,0.68,0.03,1.45-0.28,2
	c-0.63,1.15-1.48,2.17-2.24,3.25c-4.67,6.67-9.33,13.35-13.99,20.02c-0.46,0.01-0.93,0.02-1.39,0.03
	c-2.29-7.44-4.65-14.86-6.76-22.34c-0.23-0.83,1.3-2.02,1.41-3.1c0.13-1.35-0.9-2.94-0.49-4.1c1.1-3.16,2.48-6.28,4.16-9.17
	c0.97-1.66,2.76-2.82,4.16-4.24c0.39-0.4,1.01-0.94,0.96-1.33c-1.02-7.6,4.96-12.25,7.85-18.14c1.61-3.28,4.92-5.7,7.12-8.76
	c0.48-0.66-0.16-2.65-0.88-3.55c-1.84-2.33-4.01-4.4-6.05-6.58c3.41-1,7.95,2.7,9.9-2.29c1.47,1.01,2.73,1.88,4.78,3.29
	c-0.82-1.72-1.17-2.46-1.57-3.3c1.27-0.31,2.34-0.56,3.95-0.95c-0.08,4.43,3.31,4.15,6.78,4.41c-0.92,1.51-1.55,2.56-2.14,3.53
	c0.33,0.33,0.44,0.52,0.54,0.51c0.4-0.01,0.93,0.06,1.19-0.16c5.13-4.33,9.96-5.55,14.12,1.22l0.02-0.08
	c-1.08,1.45-2.16,2.9-3.74,5.02c1.85,0.4,3.25,1.16,4.32,0.84c2.4-0.73,4.64-1.99,7.03-3.07c-0.7,2.4-1.18,4.07-1.81,6.23
	c-0.74-0.21-1.57-0.45-2.4-0.69c-2.29,0.8-2.35,1.72-0.66,3.88c4.13,5.29,8.15,10.66,12.22,15.99c-0.74,1.14-1.47,2.27-2.16,3.32
	c-2.35-1.25-4.21-2.24-6.06-3.23c-1.17-1.47-2.33-2.94-3.78-4.77c3.4-1.66,2.26-3.27,0.67-4.52c-1.3,0.7-2.61,1.87-3.1,1.59
	c-1.39-0.8-2.45-2.17-3.61-3.36c-0.09-0.1,0.1-0.47,0.18-0.81c0.91,0.15,1.82,0.29,2.72,0.43c-0.66-1.53-1.9-3.19-2.83-3.03
	c-3.69,0.64-7.29,1.81-10.89,2.89c-0.31,0.09-0.6,1.02-0.53,1.51c0.27,2.04,0.67,4.06,1.02,6.09
	C189.08,208.64,189.21,208.81,189.36,208.97z M184.08,202.5c-0.01-2.08-0.34-4.63,0.02-4.73c4.95-1.39,1.45-4.76,2.11-6.79
	c-2.29-0.85-4.18-1.87-6.19-2.2c-1.95-0.33-4.03,0.05-6.05,0.11c-0.08,0.3-0.16,0.59-0.24,0.89c1.55,0.64,3.11,1.28,4.58,1.88
	c-0.57,0.79-1.19,1.67-1.82,2.55c0.26,0.2,0.51,0.39,0.77,0.59c0.91-0.92,1.81-1.84,2.76-2.8c3.99,2.91,0.88,5.09-0.51,7.85
	C180.89,200.65,182.29,201.46,184.08,202.5z M196.81,187.71c-3.46-1.3-5.78,0.2-6.78,2.8c-0.29,0.75,2.17,3.02,3.75,3.9
	C195.37,195.3,195.61,194.87,196.81,187.71z M177.94,198.67l-0.1-0.15l-0.22,0.24L177.94,198.67z"/>
<path class="st0" d="M49.66,192.02c-0.98-0.23-1.96-0.46-3.45-0.82c0.67-0.67,1.03-1.24,1.56-1.52c12.57-6.8,28.89,0.97,31.14,15.07
	c0.63,3.96-0.09,8.14-0.2,12.22c-0.46-0.58-0.92-1.16-1.38-1.75c-0.22,0.3-0.43,0.61-0.65,0.91c0.69,0.24,1.37,0.49,2.06,0.74
	c0.29,6.36-3.6,10.35-8.25,13.52c-10.14,6.92-28.19,4.5-32.79-12.1c0.79-0.92,1.56-1.82,2.41-2.81c0.35,0.58,1.18,2.01,2.06,3.42
	c0.91,1.47,1.72,3.04,2.85,4.32c0.53,0.6,1.76,0.97,2.58,0.84c6.47-1.04,12.91-2.24,19.36-3.34c0.49-0.08,1.06,0.4,1.6,0.44
	c2.88,0.21,6.43,1.61,5.92-3.81c-0.1-1.05,1.4-2.26,2.27-3.56c-0.15-1.29-0.48-2.97-0.5-4.65c-0.06-5.33-2.34-8.72-7.49-9.92
	c-2.95-0.69-6.09-0.63-9.15-0.82c-3.18-0.19-6.37-0.39-9.55-0.37c-3.3,0.02-5.76,0.75-6.19,5.05c-0.45,4.57-3.94,2.74-6.6,2.11
	c0.77-8.75,3.92-11.8,12.22-11.89c0.46-0.2,0.93-0.4,1.39-0.6C50.47,192.49,50.07,192.26,49.66,192.02z M48.82,223.82
	c-0.02,0.14-0.1,0.31-0.04,0.4c0.06,0.09,0.25,0.08,0.38,0.11c0.02-0.14,0.1-0.31,0.04-0.4C49.15,223.85,48.96,223.86,48.82,223.82z
	"/>
<path class="st0" d="M225.28,224.51c1.64,2.41,3.27,4.81,4.91,7.22c4.31-1.98,8.42-3.75,12.41-5.74c3.98-1.98,6.38,1.37,9.35,2.66
	c0.43,0.19,0.2,2.08,0.11,3.17c-0.02,0.27-0.63,0.54-1.01,0.74c-5.74,2.94-11.49,5.86-18.05,9.2c0.47-1.87,0.77-3.08,1.08-4.3
	c-0.34-0.26-0.67-0.52-1.01-0.78c-1.4,1.68-2.8,3.35-4.36,5.23c1.06,0.48,1.71,0.76,2.6,1.17c-4.41,4.03-5.37,11.18-11.48,12.72
	c-1.23,3.31-2.37,6.36-3.5,9.41c-3.58-6.53-3.44-12.81-1.19-19.11c0.29-0.81,0.77-1.59,1.29-2.29c4.03-5.37,3.76-5.1-0.89-10.04
	c-6.63-7.02-12.8-14.47-19.13-21.77c-0.31-0.36-0.23-1.05-0.33-1.59c2.2,1.47,4.4,2.94,7.45,4.98c-0.16-2.58-0.23-3.66-0.38-5.89
	c2.43,2.23,4.1,3.77,5.77,5.31c1.63,0.79,3.87,1.16,4.77,2.46c2.19,3.14,4.67,3.14,7.69,1.83c0.81,0.91,1.62,1.82,2.43,2.73
	c-0.63,0.97-1.26,1.94-1.89,2.91C223.06,224.67,224.17,224.59,225.28,224.51z M230.28,233.61c-2.68-0.5-4.55-0.85-5.51-1.03
	c-0.74,2.5-1.31,4.45-1.89,6.4c0.21,0.23,0.42,0.46,0.62,0.68C225.67,237.73,227.83,235.8,230.28,233.61z M215.96,251.8
	c0.02-0.12,0.1-0.28,0.05-0.36c-0.05-0.08-0.23-0.06-0.35-0.09c-0.01,0.13-0.08,0.29-0.02,0.37
	C215.68,251.8,215.86,251.78,215.96,251.8z"/>
<path class="st0" d="M202.34,184.21c-4.16-6.77-8.99-5.55-14.12-1.22c-0.26,0.22-0.78,0.15-1.19,0.16c-0.1,0-0.21-0.19-0.54-0.51
	c0.59-0.97,1.22-2.02,2.14-3.53c-3.47-0.25-6.86,0.02-6.78-4.41c-1.61,0.39-2.68,0.65-3.95,0.95c0.4,0.85,0.75,1.58,1.57,3.3
	c-2.04-1.41-3.3-2.28-4.78-3.29c-1.95,4.99-6.49,1.29-9.9,2.29c-0.37-0.53-0.73-1.06-1.1-1.6c4.59-1.92,0.78-4.64,0.63-6.31
	c3.58-1.94,6.82-3.69,10.07-5.44c1.07,0.25,2.15,0.49,3.22,0.74l0.05-0.3c0.88,0.95,1.7,1.96,2.65,2.82
	c1.09,0.99,2.31,1.85,3.47,2.77c-2.11,3.54,2.09,3.94,3.13,5.89c0.26,0.49,2.32,0.03,3.56,0.01c-0.19-1.29-0.38-2.57-0.57-3.86
	c2.72-0.48,5.44-0.96,8.51-1.49c0.01,0.03-0.22-0.97-0.54-2.43c1.11-0.12,2.17-0.23,3.24-0.34c1.8,0.52,3.6,1.05,5.44,1.59
	c-0.95,0.66-2,1.4-3.96,2.76c3.93,1.02,6.97,1.81,10.21,2.66c1.06-1.91,1.36-3.25-1.39-4.52c-1.96-0.9-3.35-3.03-4.99-4.61
	c2.95-0.87,5.91-1.75,8.86-2.62c-0.31,0.63-0.9,1.26-0.89,1.88c0.04,1.52,0.09,3.15,0.68,4.5c0.34,0.78,1.74,1.1,3.31,2
	c-0.53-1.9-0.84-3.02-1.46-5.25c3.42,1.64,5.91,2.83,8.12,3.9c-1.77,2.11-3.27,4.07-5,5.79c-0.38,0.38-1.79,0.16-2.42-0.26
	c-0.71-0.46-1.07-1.45-1.97-2.8c-0.46,1.2-0.95,1.86-0.78,2.14c1.54,2.62,3.19,5.18,4.8,7.76c1.27,1.27,2.53,2.54,3.69,3.7
	c-4.61,2.7-8.84,5.22-13.12,7.66c-2.51,1.43-4.19,0.95-4.49-2.22c0.83,0.24,1.66,0.47,2.4,0.69c0.63-2.16,1.11-3.83,1.81-6.23
	c-2.39,1.08-4.63,2.35-7.03,3.07c-1.07,0.32-2.46-0.44-4.32-0.84c1.58-2.12,2.66-3.57,3.74-5.02c0.42,0.43,0.84,0.86,1.27,1.29
	c0.09-0.13,0.18-0.26,0.27-0.39C203.38,184.76,202.86,184.49,202.34,184.21z M215.85,186.01c-0.83-1.05-1.62-2.04-2.73-3.44
	c0.42,1.29,0.68,2.09,0.96,2.95c-2.01-1.82-3.87-3.51-6.2-5.62C208.56,186.22,211.41,188.25,215.85,186.01z M181.85,170.15
	c-0.3-0.08-0.59-0.25-0.74-0.17c-0.18,0.09-0.24,0.4-0.35,0.62c0.31,0.08,0.63,0.15,0.94,0.23
	C181.76,170.61,181.81,170.38,181.85,170.15z"/>
<path class="st0" d="M101.42,308.06c1.28-0.09,2.56-0.18,4.14-0.3c-0.78-0.98-1.46-1.84-2.13-2.69c4.5,2.18,7.17,9.03,12.88,5.17
	c2.41-4.59,4.43-8.45,6.7-12.76c-5.41-0.93-8.49-9.06-15.63-4.17c2.3-1.82,4.6-3.64,7.27-5.76c0.01,0,0.81,0.06,1.02,0.43
	c1.63,2.9,3.88,4.48,6.95,6.19c4.96,2.75,7.15,9.59,14.19,10.65c-4.11-0.92-6.33,0.61-8.45,3.61c-0.98,1.38-3.63,1.58-4.65,1.98
	c-1.1,2.8-1.6,5.37-2.98,7.34c-2.92,4.18-6.39,7.97-9.45,12.05c-1.67,2.22-3.86,4.65-0.86,7.7c-7.33-5.85-14.66-11.71-22.42-17.9
	c6.65-2.41,9.51,3.07,13.83,5.5c1.17-1.15,2.29-2.26,3.12-3.08c2.25-1.57,4.79,4.23,6.86-0.95c-1.58-0.32-2.82-0.58-4.67-0.95
	c0.88-1.65,1.65-3.08,2.69-5c-2.73-2.33-5.56-4.75-8.39-7.16L101.42,308.06z"/>
<path class="st0" d="M150.05,309.98c4.43,3.33,9.5,6.07,13.14,10.1c6.72,7.45,4.25,22.65-4.12,28.35c-1.02,0.7-2.95,0.07-5.65,0.04
	c-0.1,0.25-0.46,1.75-1.31,2.87c-0.57,0.75-1.81,1.21-2.82,1.37c-7.35,1.16-13.75-1.81-20.12-4.85c-0.92-0.44-1.79-1-2.67-1.53
	c-5.57-3.34-5.57-3.34-1.19-6.22c4.25,2.67,8.04,5.31,12.06,7.5c3.42,1.87,6.83,0.89,9.93-1.2c6.92-4.67,11.44-16.65,8.2-24.23
	c-1.49-3.49-5.16-6.06-7.83-9.05C148.47,312.09,149.26,311.04,150.05,309.98z"/>
<path class="st0" d="M344.41,232.31c-1.3,0.75-2.59,1.5-4.18,2.41c0.37,0.69,0.89,1.64,1.41,2.61c-4.02,5.87-13.42,7.83-18.34,4.87
	c-4.58-2.75-6.86-8.25-5.08-13.87c1.05,0.97,2.16,1.69,2.85,2.7c2.87,4.24,5.55,4.96,9.72,2.12c3.03-2.06,5.71-4.62,8.79-6.6
	c7.93-5.09,17.85-2.32,19.13,5.8c0.67,4.27-0.92,8.96-1.83,13.39c-0.3,1.49-1.64,2.76-2.74,4.52c-2.55-0.8-5.35-1.67-8.14-2.54
	c4.65-0.72,8.25-2.53,9.22-7.08c0.45-2.13-0.12-4.99-1.33-6.76c-0.7-1.03-3.6-0.61-5.51-0.74c-1.15-0.08-2.32,0.03-3.48,0.06
	C344.73,232.9,344.57,232.6,344.41,232.31z"/>
<path class="st0" d="M240.41,337.2c3.87-3.82,1.05-7.66-0.24-11.28c-1.28-3.57-1.19-8.55-7.06-8.9c4.35-0.28,8.26-5.38,12.79-0.75
	c-1.1,1.18-2.13,2.27-3.27,3.49c2.25-0.34,3.97-0.59,5.69-0.85c-0.11,2-0.22,4.01-0.37,6.85c7.45,3.08,5.23,12.16,8.14,18.71
	c2.26,5.1,1.31,5.52,7.32,6.1c-9.39,3.23-18.33,6.31-27.77,9.56c-0.72-2.91-1.38-5.55-2.2-8.82c2.28,1.89,3.84,4.23,5.4,4.23
	c2.8-0.01,5.65-1.3,8.36-2.34c0.57-0.22,0.92-1.72,0.89-2.62c-0.15-5.81-1.62-10.93-7.67-13.38L240.41,337.2z M251.98,339.45
	c-0.35,0.25-0.71,0.49-1.06,0.74c0.46,1.48,0.93,2.95,1.71,5.42c0.97-1.74,2.13-2.9,1.91-3.67
	C254.26,340.95,252.88,340.27,251.98,339.45z"/>
<path class="st0" d="M79.53,170.08c-1.61-5.61-6.93-5.68-10.47-2.8c-2.85,2.31-5.64,4.72-8.67,6.77c-5.89,3.99-11.34,3.6-16.98-0.93
	c0.47-1.54,0.95-3.12,1.5-4.95c-1.49-0.43-2.7-0.79-3.91-1.14c-0.15-0.27-0.41-0.54-0.39-0.77c0.23-2.16,0.26-4.38,0.81-6.47
	c2.69-10.14,2.74-10.13,13.56-5.96c-2.31,0.19-3.63,0.39-4.96,0.38c-1.4-0.01-2.8-0.23-4.26-0.37c-0.53,2.6-1.38,4.96-1.37,7.33
	c0.01,2,0.43,4.93,1.74,5.74c1.58,0.99,4.54,0.81,6.44,0.02c3.32-1.39,6.2-3.8,9.44-5.42c1.3-0.65,3.08-0.32,4.66-0.44
	c0.64-4.72,1.56-5.41,6.56-4.25c5.69,1.32,7.94,4.71,9.09,9.82c0.17,0.75-1.07,1.81-1.65,2.72
	C80.3,169.62,79.92,169.85,79.53,170.08z"/>
<path class="st0" d="M219.7,183.33c-1.62-2.58-3.26-5.14-4.8-7.76c-0.16-0.28,0.33-0.94,0.78-2.14c0.9,1.34,1.26,2.34,1.97,2.8
	c0.63,0.41,2.04,0.64,2.42,0.26c1.74-1.72,3.23-3.69,5-5.79c-2.21-1.06-4.7-2.26-8.12-3.9c0.62,2.23,0.93,3.35,1.46,5.25
	c-1.58-0.9-2.97-1.22-3.31-2c-0.59-1.35-0.64-2.98-0.68-4.5c-0.02-0.62,0.57-1.25,0.89-1.88c1.9-1.29,3.5-3,5.8-0.01
	c0.7,0.91,3.68,0.08,6.01,0.04c-0.05,0.98-0.11,2-0.19,3.36c1.51,0.34,3.14,0.7,5.25,1.17c-0.38-1.48-0.64-2.5-0.91-3.51l-0.02-0.03
	c2.65,1.57,5.29,3.14,8.2,4.86c0.14-0.7,0.24-1.45,0.45-2.18c0.82-2.81,5.15-5.82,7.19-5.02c0.03,1.05,0.06,2.11,0.09,3.16
	c-0.94-0.04-1.87-0.07-3.14-0.12c0.15,1.43,0.27,2.64,0.39,3.81c2.04,0.37,3.83,0.7,5.61,1.02c0.17-0.32,0.34-0.64,0.52-0.96
	c-1.14-1.26-2.28-2.52-3.42-3.78c3.05,0.39,6.09,0.79,9.71,1.26c-1.25,1.44-1.77,2.04-2.29,2.64c-1.29,1.51-2.29,3.56-3.92,4.45
	c-5.54,3.03-11.27,5.72-17,8.39c-1.03,0.48-2.4,0.24-3.61,0.32c-0.11-0.35-0.23-0.7-0.34-1.05c0.92-0.98,1.84-1.96,3.66-3.9
	c-2.86-0.08-4.76-0.13-6.65-0.19c0.03-1.24,0.07-2.48,0.1-3.72c-0.37-0.08-0.73-0.15-1.1-0.23c-1.01,2.17-2.02,4.35-3.02,6.52
	C221.68,181.1,220.69,182.21,219.7,183.33z"/>
<path class="st0" d="M56.55,130.94c-1.68,3.42-3.22,6.55-5.19,10.56c-0.94-1.67-2.05-2.81-2.21-4.08
	c-0.3-2.35,5.62-10.48,7.84-11.27c-0.09-1.51-0.19-3.03-0.34-5.54c10.97,5.33,21.23,10.23,31.4,15.31c3.44,1.72,6.34,2.33,9.11-1.36
	c-2.97,5.6-5.95,11.21-9.58,18.04c1.32-7.52-4.88-6.89-6.32-8.57c-1.95-4.73-3.31-8.05-4.82-11.72c-1.93-0.08-4.21-0.18-7.14-0.31
	c1.56,2.48,2.74,4.34,3.92,6.21c-0.28,0.23-0.56,0.46-0.83,0.68C67.18,136.3,61.99,133.69,56.55,130.94z"/>
<path class="st0" d="M73.67,319.87c-6.38-8.05-12.76-16.11-19.15-24.16c-0.47-0.73-0.94-1.46-1.4-2.18
	c-0.45-1.45-0.91-2.89-1.36-4.34c0.47-0.08,0.93-0.16,1.4-0.24c1.34,1.91,2.68,3.82,4.03,5.74c0.49,0.72,0.99,1.44,1.48,2.17
	c4.94,6.24,9.89,12.49,14.83,18.73c0.59,0.64,1.18,1.28,1.77,1.93c9.13,7.76,17.89,16.02,27.47,23.17
	c12.81,9.56,27.15,16.49,42.38,21.47c0.97,0.32,2.08,0.47,2.87,1.05c0.85,0.62,1.41,1.66,2.09,2.51c-1.01,0.16-2.19,0.73-3.01,0.41
	c-8.71-3.45-17.8-6.26-25.92-10.8c-11.01-6.14-21.47-13.35-31.75-20.68c-5.12-3.65-9.32-8.58-13.94-12.93
	C74.87,321.1,74.27,320.49,73.67,319.87z"/>
<path class="st0" d="M210.23,338.05c-0.56-3.08-1.26-6.14-1.63-9.24c-0.42-3.55-0.57-7.1-6.3-6.03c0.2-0.41,0.4-0.83,0.6-1.24
	c2.89-0.16,5.78-0.32,8.6-0.48c1.86,3.55,1.65,3.33,4.54,0.49c1.11-1.09,3.43-0.95,4.83-1.28c-0.9,2.66-1.73,5.12-2.55,7.57
	c-2.05-0.72-4.1-1.45-6.47-2.28c0.6,2.15,1.03,3.69,1.51,5.4c1.81-0.73,3.36-1.35,4.92-1.98c0.65,9.69,1.31,19.38,2.06,30.59
	c-1.89-0.69-3.11-1.13-4.33-1.57c-0.49-0.06-0.99-0.11-1.48-0.17c-1.37-0.05-2.73-0.11-4.1-0.17l0.06,0.03
	c-0.26-3.04-0.7-6.08-0.73-9.13c-0.04-3.52-1.61-4.19-4.76-3.47c-2.79,0.64-5.7,0.82-8.97,1.25c0.01-3.11,0.02-5.77,0.02-9.05
	c3.27,4.93,10.22,5.68,13.96,2.1c1.44,0.63,2.88,1.26,4,1.76c0.74-1.88,1.25-3.17,1.86-4.69
	C213.44,337.14,211.84,337.6,210.23,338.05z M215.75,334.82c-0.08-0.58-0.02-1.09-0.2-1.2c-0.29-0.17-0.74-0.08-1.12-0.09
	c0.02,0.35-0.09,0.81,0.09,1.02C214.69,334.75,215.16,334.71,215.75,334.82z"/>
<path class="st0" d="M267.96,313.12c2.79,4.78,4.92,10.16,8.55,14.2c4.44,4.94,13.21,5.08,19.35,1.66c0.5-0.28,1.08-0.41,1.62-0.61
	c0.28,0.41,0.56,0.82,0.83,1.24c-1.86,1.86-3.47,4.07-5.61,5.5c-7.15,4.76-17.2,4.19-23.79-1.03c-7.13-5.66-10.52-15.98-7.66-23.91
	c0.39-1.07,1.78-1.77,2.7-2.64c-0.47,2.37-0.93,4.73-1.41,7.18C264.94,315.59,266.94,316.01,267.96,313.12z"/>
<path class="st0" d="M300.07,255.12c2.9,2.84-0.08,5.12-1.23,6.91c-3.37,5.24-7.06,10.36-11.21,14.99
	c-4.39,4.9-9.04,9.77-14.35,13.59c-7.7,5.54-16.05,10.18-24.21,15.06c-1.07,0.64-2.66,0.43-4.02,0.59
	c-0.55,0.06-1.41-0.16-1.63,0.13c-4.12,5.52-10.71,5.25-16.39,6.83c-5.32,1.47-10.88,2.05-16.33,3.03c-0.34-0.43-0.67-0.87-1.01-1.3
	c0.8-0.81,1.46-1.94,2.43-2.36c1.16-0.5,2.68-0.79,3.88-0.49c2.9,0.73,5.15-0.03,7.94-1.19c7.55-3.14,15.46-5.41,23.27-7.89
	c1.28-0.4,2.76-0.13,3.75-1.18c2.21-1.01,4.57-1.79,6.58-3.1c2.76-1.78,5.33-3.87,7.84-5.99c7.25-6.09,14.78-11.91,21.49-18.55
	c3.63-3.59,5.76-8.67,8.67-13c1.41-2.1,3.06-4.03,4.61-6.04L300.07,255.12z"/>
<path class="st0" d="M191.37,322.26c-1.09,1.73-2.87,3.36-3.17,5.22c-1.44,8.94-2.51,17.95-3.64,26.94
	c-0.57,4.55-4.07,7.45-8.61,7.11c-1.86-0.14-3.74,0.05-5.03,0.07c1.42-2.8,2.97-4.74,3.4-6.91c1.24-6.27,2.03-12.62,3-18.94
	c1.85-1.14,3.71-2.28,5.56-3.42c-1.4-0.8-2.81-1.59-4.21-2.39c-0.22-1.49-0.37-3-0.68-4.47c-0.38-1.78-0.89-3.53-1.53-6
	c4.67,0.67,9.76,1.4,14.85,2.13C191.35,321.82,191.36,322.04,191.37,322.26z M177.61,345.96c0.78,0.4,1.57,0.8,2.35,1.2
	c0.76-1.44,1.72-2.83,2.16-4.37c0.12-0.42-1.35-1.28-2.09-1.94C179.23,342.55,178.42,344.25,177.61,345.96z"/>
<path class="st0" d="M360.26,191.33c0.72,0.07,2.06,0.06,2.08,0.22c0.71,5.4-0.23,10.38-4.27,14.36
	c-5.99,5.92-13.11,7.83-21.26,5.89c0.2-0.33,0.41-0.66,0.61-0.98c-1.48-1.15-2.94-3.27-4.43-3.29c-6.92-0.09-9.58-4.44-11.86-11.17
	c2.27,0.84,3.85,1.18,5.18,1.95c10.1,5.83,22.88,4.19,31.43-4.08c0.7-0.68,1.71-1.04,2.57-1.55c0.33-0.17,0.67-0.33,1.01-0.49
	C360.97,191.9,360.62,191.61,360.26,191.33z M349.32,207.53c1.59-1.47,3.19-2.94,0.12-4.55c-2.73,1.74-5.45,3.48-8.18,5.22
	c0.16,0.38,0.32,0.76,0.48,1.14c2.38-0.62,4.76-1.24,7.13-1.86c0.03,0.22,0.05,0.45,0.08,0.67
	C349.08,207.94,349.2,207.73,349.32,207.53z"/>
<path class="st0" d="M87.76,58c-2.26-3.95-4.68-4.22-9.22-1.66c0.76-0.7,2.11-1.38,2.13-2.1c0.03-0.95-0.99-1.94-1.55-2.91
	c1.81-5.76,4.43-6.71,10.13-3.52c-1.34,4.17,0.68,4.99,4.31,4.05c0.29-0.17,0.58-0.33,0.87-0.49c-0.27-0.21-0.54-0.43-0.81-0.64
	c-0.92-0.25-1.85-0.5-2.05-0.56c-1.12-2.86-2.08-5.29-3.28-8.37c2.9-1.59,6.01-3.35,9.17-5.01c2.38-1.25,4.83-2.36,7.26-3.53
	c-0.62,1.31-1.23,2.62-1.85,3.93c2.09,0.16,4.17,3.32,6.53,0.11c-1.73-1.47-3.25-2.77-4.77-4.07c3.02-2.54,5.71-5.84,10.4-4.67
	l-0.03,0c1.47,1.84,2.94,3.67,4.4,5.51c-0.31-0.11-0.61-0.21-0.92-0.32c-0.03,0.13-0.05,0.26-0.08,0.39c0.33-0.03,0.67-0.06,1-0.08
	c-0.42,0.28-0.97,0.89-1.25,0.78c-0.99-0.38-1.88-1.01-3.37-0.64c1.62,1.1,3.24,2.19,4.86,3.29c-7.19-0.83-9.9,5.21-14.18,8.66
	c-2.62-1.69-3.39-6.45-8.03-4.78c-1.48,0.53-3.01,0.89-4.52,1.33c0.98,1.52,1.88,3.1,2.98,4.53c0.5,0.65,1.39,1.01,2.1,1.5
	c-2.25,2.16-4.5,4.32-6.75,6.49c-0.53-0.56-1.07-1.12-1.6-1.68c-0.11,0.08-0.23,0.15-0.34,0.23c0.35,0.69,0.7,1.38,1.06,2.06
	C89.48,56.54,88.62,57.27,87.76,58z"/>
<path class="st0" d="M71.06,61.04c1.2-0.27,2.4-0.54,3.61-0.8c0.36,0.03,0.71,0.06,1.07,0.08c0.05,3.56,3.14,1.69,4.66,2.61
	c0.16,0.21,0.33,0.41,0.52,0.59c-3.1,3.03-6.04,6.26-9.41,8.96c-1.04,0.83-3.25,0.18-5.41,0.22c3.42,3.51,0.02,5.43-1.68,7.7
	c-1.87,2.49-3.85,4.93-6,7.19c-1.48,1.55-2.97,4.07-5.66,1.5c-0.64-0.65-1.29-1.3-1.93-1.94c-0.46-0.4-0.92-0.81-1.38-1.21
	c0.69-0.84,1.37-1.67,2.06-2.51c1.14,0.51,2.29,1.01,3.4,1.51c1.97-1.56,3.85-3.05,5.74-4.55c-0.15-0.35-0.31-0.7-0.46-1.05
	c-2.42,0.95-4.84,1.9-7.26,2.84c-0.21-0.96-0.43-1.92-0.64-2.88c-0.28-1.05-0.56-2.1-0.84-3.14c1.27,0.02,2.55,0.03,4.21,0.05
	c-0.6-0.84-1.16-1.62-2.04-2.84C59.17,69.09,62.03,60.94,71.06,61.04z"/>
<path class="st0" d="M54.23,271.19c-2.22-5.09-4.87-10.05-6.51-15.32c-1.3-4.17,0.19-8.2,4.04-10.81c4-2.71,8.25-2.79,12.52-0.62
	c3.65,1.86,6.32,5.52,7.66,9.87c-2.15-1.03-4.65-3.18-7.15-3.18c-2.82,0-5.91,1.52-8.4,3.13c-4.09,2.64-4.57,5.61-2.27,10.62
	c3.14-1.09,6.34-2.21,10.98-3.82c-0.99,3.57-1.66,5.97-2.32,8.37c-1.43-0.67-2.86-1.34-3.99-1.87
	C57.3,268.77,55.77,269.98,54.23,271.19z M54.32,245.33c-1.06,2.59-1.79,4.41-2.61,6.42C56.29,251.48,56.45,251.1,54.32,245.33z"/>
<path class="st0" d="M337.78,138c-2.2,0.48-4.41,0.95-6.61,1.43c-0.28-0.33-0.67-0.61-0.83-0.99c-0.66-1.54,1.64-4.64-1.89-4.41
	c-0.84,0.05-1.59,3.21-2.13,5.02c-0.2,0.67,0.34,1.57,0.54,2.36c-4.57,2.48-9.09,5.06-13.76,7.34c-0.72,0.35-2.88-0.49-3.09-1.17
	c-0.52-1.69-0.29-3.6-0.38-5.69c-1.16-1.47-2.75-3.47-4.33-5.47c0.22-0.18,0.44-0.36,0.66-0.54c0.9,1.14,1.8,2.28,2.3,2.9
	c8.58-2.93,16.92-5.74,25.22-8.68c1.09-0.39,1.84-1.74,2.93-2.12c1.36-0.48,2.92-0.41,4.39-0.58c-0.41,2.67,1.22,6.54-3.4,6.1
	C337.55,135.21,337.66,136.61,337.78,138z M312.03,138.86c-0.78,0.21-1.25,0.21-1.53,0.45c-0.21,0.17-0.33,0.74-0.19,0.94
	c0.15,0.22,0.71,0.4,0.94,0.29C311.49,140.41,311.55,139.93,312.03,138.86z"/>
<path class="st0" d="M286.38,293.02c14.83,1.59,22.01,14.67,18.97,27.29c-6.72-2.54-9.51-8.76-13.57-13.63c-0.4-0.4-0.8-0.8-1.2-1.2
	c-1.46-1.23-2.93-2.46-4.39-3.69c-0.26-0.46-0.51-0.91-0.76-1.36c-0.24-0.92-0.48-1.84-0.73-2.76c-0.18-0.57-0.37-1.14-0.55-1.71
	c0.48-0.76,0.96-1.52,1.44-2.28C285.84,293.45,286.11,293.24,286.38,293.02z M289.92,298.69c0.21,0.43,0.42,0.86,0.63,1.3
	c1.79-0.69,3.57-1.38,5.36-2.07c-0.31-0.65-0.62-1.29-0.93-1.94C293.29,296.89,291.6,297.79,289.92,298.69z"/>
<path class="st0" d="M336.53,265.72c2.12,0.93,4.25,1.87,6.58,2.9c1.97-2.93,3.92-5.85,6.05-9.03c-0.85-1.43-1.98-3.34-3.11-5.24
	c0.12-0.13,0.25-0.25,0.37-0.38c2.07,1.74,4.15,3.48,6.66,5.59c-5.32,10.18-11.03,21.12-17.09,32.72c-2.58-1.1-5.41-2.32-8.25-3.53
	c3.86-0.06,6.43-1.38,7.87-4.89c1.17-2.83,4.4-5.28,0.72-8.62c-1.84-0.51-4.2-1.16-6.73-1.86c1.67-2.18,2.88-3.76,4.09-5.33
	C334.65,267.27,335.59,266.49,336.53,265.72z"/>
<path class="st0" d="M387.62,152.45c0.44,1.87,0.87,3.74,1.31,5.61c-1.91,1.07-3.82,2.14-5.73,3.2l0,0
	c-0.17-0.23-0.34-0.46-0.52-0.68c0.73-1.9,1.5-4.14-0.89-5.05c-1.02-0.39-2.74,1.07-4.14,1.7c-2.75-1.49-2.63-2.79,0.62-6.42
	c0.54,0.09,1.09,0.18,1.63,0.26c-0.37-0.34-0.74-0.67-1.1-1.01c-4.77-2.14-4.57-5.7-2.84-8.88c-2.61-2.52-4.92-4.6-6.99-6.89
	c-0.28-0.31,0.62-1.67,0.97-2.54c1.19-0.45,2.39-0.89,3.58-1.34c0.94,0.83,1.88,1.66,2.81,2.5c1.27,3.07,3.05,3.84,6.48,1.4
	c-0.24,1.45-0.47,2.89-0.77,4.75c4.93,1.87,3.81,7.62,5.36,12.07c-0.17,0.12-0.35,0.23-0.54,0.32c-0.49-0.18-0.97-0.38-1.47-0.5
	c-0.06-0.01-0.23,0.43-0.34,0.66c0.59,0.08,1.18,0.17,1.77,0.25C387.08,152.06,387.35,152.25,387.62,152.45z M381.98,151.24
	c-0.03,0.11-0.12,0.23-0.08,0.31c0.03,0.07,0.18,0.09,0.28,0.13c0.04-0.17,0.08-0.35,0.13-0.52
	C382.2,151.18,382.09,151.21,381.98,151.24z"/>
<path class="st0" d="M71.29,268.76c0.7-2.14,1-3.05,1.45-4.43c-3.06,0.09-6.14,0.16-5.23-4.47c4.96-2.01,10.22-4.13,15.48-6.28
	c3.13-1.28,6.09-2.71,4.86-7.27c2.29,5.66,4.57,11.32,6.89,17.06c-6.27-3.34-11.09,1.51-16.49,2.73
	C76.17,266.56,74.23,267.61,71.29,268.76z M87.54,256.95c0.02,0.22,0.03,0.44,0.05,0.66c0.59,0.02,1.18,0.03,1.76,0.05
	c-0.05-0.34-0.1-0.68-0.16-1.03C88.64,256.74,88.09,256.84,87.54,256.95z"/>
<path class="st0" d="M182.27,66.28c-0.06-3.1-2.32-6.39,1.07-9.23c0.42-0.35-0.54-2.33-1.62-3.56c0.27-1.94-2.59-6.49,3.65-5.16
	c-0.41-0.97-0.57-2-0.92-2.07c-6-1.2-1.83-3.53-0.41-5.07c0.65-0.7,2.37-0.64,3.57-0.53c0.98,0.1,1.91,0.79,3.26,1.4
	c0.15,3.66,0.32,7.86,0.51,12.56c3.34-0.06,6.49-0.11,9.64-0.16c-0.05,1.38-0.1,2.68-0.15,3.86c-2.98,0.3-6.37,0.65-9.76,0.99
	c-1.09,0.68-2.26,1.25-3.25,2.05C185.95,62.93,184.13,64.63,182.27,66.28z"/>
<path class="st0" d="M134.66,83.02c-2.08-1.64-2.57-6.3-7.64-4.02c0.67-1.28,1.33-2.56,2.36-4.54c-6.28-2.06-12.62-4.14-18.95-6.23
	c0.22-1.14,0.44-2.29,0.66-3.43c5.57-4.37,13.8-3.64,19.24,1.78c-1.05,0.65-2.09,1.3-3.12,1.94c-0.01,0.47-0.02,0.93-0.03,1.4
	c1.63,0.07,3.27,0.31,4.89,0.18c2.2-0.18,6.12,4.21,5.36,6.32c-0.81,2.26-1.83,4.45-2.76,6.67L134.66,83.02z"/>
<path class="st0" d="M336.53,265.72c-0.94,0.78-1.89,1.56-2.82,2.33c-0.97-0.54-1.95-1.08-3.21-1.77c-1.03,1.78-2.06,3.57-3.18,5.5
	c-3.36-1.68-6.49-3.25-9.61-4.82c0.92-0.85,1.83-1.7,3.53-3.28c-2.7-0.68-4.64-1.16-6.36-1.59c-0.61,1.18-1.02,1.95-1.42,2.72
	c-0.65-0.33-1.3-0.65-1.94-0.99c-3.16-1.66-6.24-2.97-7.93,2.68c-0.6-7.08,5.78-6.74,7.56-8.77c0.39-2.92,0.61-4.56,0.83-6.21
	l-0.09-0.01c1.78,1.89,3.56,3.78,5.36,5.69c2.34,0.71,5.25,1.26,7.87,2.45C329.03,261.43,332.74,263.67,336.53,265.72z"/>
<path class="st0" d="M174.39,164.61c-3.24,1.75-6.49,3.51-10.07,5.44c0.15,1.68,3.96,4.4-0.63,6.31c-0.61-2.11-1.23-4.22-1.84-6.33
	c0.18-0.2,0.35-0.4,0.53-0.6c-0.33-0.08-0.66-0.17-0.99-0.25c-0.23-1.19-0.45-2.39-0.68-3.58c1.17-0.35,2.4-0.6,3.51-1.09
	c1.43-0.63,3.62-1.21,3.94-2.27c0.48-1.58,0.47-3.42-2.53-4.35c-2.58-0.8-7.02-1.81-6.15-6.65c1-0.59,2-1.18,3-1.77
	c0.06-0.42,0.13-0.83,0.19-1.25l0.01,0.03l0.32-0.27l0.34-0.24c1.53-0.68,3.01-1.67,4.62-1.94c1.15-0.19,2.47,0.57,3.71,0.91
	c-0.57,1.16-1.14,2.32-1.71,3.48c-2.68,0.1-5.36,0.2-8.04,0.31c-0.13,0.47-0.26,0.94-0.39,1.4c1.59,0.77,3.18,1.53,4.77,2.3
	c5.44,0.73,9.04,4.27,12.26,8.24c0.31,0.38-0.56,1.72-0.88,2.61c0,0-0.05,0.3-0.05,0.3c-1.19-1.25-2.38-2.51-3.56-3.77
	c-0.32,0.29-0.65,0.59-0.97,0.88C173.52,163.18,173.95,163.89,174.39,164.61z M173.48,160.45c0.06,0.27,0.11,0.52,0.16,0.77
	c0.28-0.07,0.57-0.14,0.85-0.22c-0.11-0.23-0.17-0.55-0.35-0.68C174.02,160.24,173.71,160.4,173.48,160.45z"/>
<path class="st0" d="M305.7,49.33c2.02-0.68,4.81-1.62,7.53-2.54c-1.39-1.75-2.26-2.85-3.13-3.95c4.65,0.43,8.35,5.26,7.45,8.82
	c-0.62,2.46-2.41,4.63-3.65,6.89c-2.39-2.04-4.61-5.16-7.57-6.19c-5.03-1.76-7.91-3.62-4.89-9.21c0.2-0.36,0.15-0.85,0.36-2.19
	c-2.21,2.04-3.86,3.56-5.95,5.49c-1.47-1.09-3.42-2.52-5.36-3.96c0.18-0.55,0.35-1.1,0.53-1.65c4.11-0.27,8.22-0.54,12.2-0.8
	C304.12,43.39,304.79,45.89,305.7,49.33z M314.28,52.49c0.09-0.84,0.18-1.68,0.26-2.52c-1.25-0.1-2.5-0.21-3.75-0.31
	c-0.09,0.86-0.17,1.71-0.26,2.57C311.79,52.31,313.03,52.4,314.28,52.49z M309.31,50.39c-0.02,0.12-0.03,0.23-0.05,0.35
	c0.12,0.01,0.23,0.03,0.35,0.04c-0.01-0.15-0.03-0.3-0.04-0.45C309.48,50.35,309.39,50.37,309.31,50.39z"/>
<path class="st0" d="M143.65,15.02c2.33-0.72,4.64-1.49,6.99-2.14c2.23-0.62,4.5-1.1,7.39-1.8c-0.59,1.44-0.97,2.38-1.37,3.35
	c2.97-0.83,5.71-1.6,8.89-2.49c0-0.12,0.04-1.22,0.07-2.33c2.16,0.15,4.05,0.27,5.6,0.38c-0.42,2.08-0.66,4.24-1.32,6.27
	c-0.84,2.59-2.09,4.21-5.03,1.71c-0.69-0.59-2.6,0.26-3.94,0.45c0.47,1.03,0.94,2.06,1.41,3.09c0.25-0.12,0.49-0.25,0.74-0.37
	c0,0.09,0,0.19,0,0.28c-1.12-0.55-2.25-1.11-3.96-1.95c0.2,1.68,0.34,2.79,0.54,4.45c-3.25-0.25-6.38-0.5-9.52-0.74
	c0.53-1.84,1.06-3.69,1.58-5.48c-2-0.4-4.52-0.91-7.04-1.42C144.32,15.86,143.99,15.44,143.65,15.02z"/>
<path class="st0" d="M98.46,95.65c0.48-0.33,0.97-0.65,1.45-0.98c5.04-0.75,5.48,2.81,5.77,6.25c1.85,0.61,3.46,1.14,4.26,1.4
	c0.09-2.02,0.18-3.94,0.27-5.86c0.41,0.14,0.98,0.16,1.21,0.45c3.52,4.44,7.59,6.88,12.98,3.24c0.46,1.83,0.75,2.98,1.06,4.21
	c-7.14,4.99-19.08,3.56-24.79-3.01c-0.9-1.04-2.13-1.81-3.21-2.7C97.8,97.64,98.13,96.64,98.46,95.65z"/>
<path class="st0" d="M344.59,174.96c-3.8,3.73-7.22,2.92-10.79-0.53c-1.21-1.17-3.23-1.49-4.87-2.21c-0.36,0.6-0.73,1.21-1.09,1.81
	c1.92,1.56,3.84,3.12,5.97,4.86c-3.79,1.96-7.42,4.55-12.68,1.63c1.74-2.71,3.28-5.85,5.52-8.39c2.64-3,5.8-5.79,10.18-2.56
	c0.74-1.19,1.4-2.25,2.06-3.31c1.49,1,2.98,1.99,4.47,2.99C343.75,171.15,344.17,173.06,344.59,174.96z M342.5,174.74
	c-0.03-0.27,0-0.72-0.08-0.74c-0.34-0.08-0.71-0.04-1.08-0.04c0.14,0.32,0.22,0.68,0.43,0.94
	C341.85,174.99,342.24,174.8,342.5,174.74z"/>
<path class="st0" d="M156.48,65.39c0.75,2.08,1.49,4.15,2.25,6.23c1.48,4.05,4.77,7.98-0.78,12.46c0.54,0.06,1.09,0.13,1.63,0.19
	c1.26-0.36,2.52-0.72,4.67-1.34c-6.1,3.84-10.3,4.54-12.21,2.07c1.25-0.32,2.34-0.59,3.62-0.92c-0.22-1.58,0.05-3.32-0.68-4.3
	c-3.15-4.21,0.33-3.43,3.41-3.74c-0.64-1.31-1.32-3.33-1.64-3.27c-2.15,0.39-4.23,1.21-6.33,1.89l-0.01,0.02
	c0.84-1.24,1.68-2.49,2.72-4.04c-4.04-2.26-9.11-4.35-6.61-10.85c1.3,0.06,2.59,0.12,3.89,0.17
	C152.69,61.48,151.42,66.97,156.48,65.39z"/>
<path class="st0" d="M241.95,22.67c-4.38,1.47-7.67-1.04-11.03-3.11c-1.05-0.65-1.84-1.74-2.76-2.64c-0.87,1.03-1.53,1.8-2.18,2.57
	c-0.57-0.78-1.07-1.62-1.72-2.32c-0.91-0.97-1.94-1.83-3.54-3.32c-0.14,2.16-0.22,3.37-0.3,4.69c-4.77,0.91-4.77,0.91-4.27-7.8
	c-1.04-0.1-2.14-0.2-3.31-0.3c0.68-0.8,2.21-3.29,2.73-3.09c2.43,0.9,4.58,2.55,6.84,3.93c-0.2,0.3-0.39,0.61-0.59,0.91
	c1.2-0.2,2.41-0.58,3.6-0.56c1.18,0.03,2.36,0.47,3.72,0.77c-0.43,1.38-0.91,2.93-1.59,5.12c1.9-0.81,3.16-1.34,4.41-1.88
	c1.07,1.22,2.14,2.43,3.49,3.97c0.12-1.32,0.21-2.3,0.28-3.06C240.69,15.9,241.55,19.07,241.95,22.67z"/>
<path class="st0" d="M373.82,197.31c0.91,17.02,0.02,33.45-6.29,48.93c-0.64-0.12-1.28-0.24-1.92-0.36
	c1.24-4.52,2.56-9.02,3.67-13.58c0.33-1.38-0.05-2.92,0.07-4.38c0.73-8.74,1.42-17.48,2.34-26.19
	C371.86,200.19,373.08,198.78,373.82,197.31z"/>
<path class="st0" d="M208.94,214.82c-1.67-1.54-3.35-3.08-5.77-5.31c0.14,2.23,0.21,3.32,0.38,5.89c-3.05-2.04-5.25-3.51-7.45-4.98
	c-0.57-0.28-1.14-0.55-1.72-0.83c0.57-2.64,5.13-2.72,4.09-6.39c0-0.27,0-0.54,0.01-0.81c-0.26,0.23-0.51,0.47-0.77,0.7
	c-2.03,0.76-4.06,1.51-6.1,2.27c-0.21-0.37-0.42-0.73-0.62-1.1c-0.68,1.41-1.36,2.81-2.04,4.22c-0.35-2.03-0.76-4.05-1.02-6.1
	c-0.06-0.49,0.22-1.41,0.53-1.51c3.6-1.08,7.2-2.26,10.89-2.89c0.93-0.16,2.18,1.49,2.83,3.03c-0.9-0.14-1.81-0.29-2.72-0.43
	c-0.08,0.34-0.27,0.71-0.18,0.81c1.16,1.18,2.22,2.56,3.61,3.36c0.48,0.28,1.8-0.89,3.1-1.59c1.59,1.25,2.73,2.87-0.67,4.52
	c1.45,1.83,2.61,3.3,3.78,4.77C209.05,213.23,209,214.02,208.94,214.82z"/>
<path class="st0" d="M173.89,373.46c-0.31-2.11-0.46-3.12-0.52-3.57c15.16,0.6,30.39,1.21,45.74,1.82
	c-1.92,0.71-4.17,2.24-6.42,2.25C199.76,374,186.84,373.67,173.89,373.46z"/>
<path class="st0" d="M50.83,87.16c0.64,0.65,1.29,1.3,1.93,1.94c-0.9,5.22-1.81,10.43-5.81,14.39c-1.9-4.25-5.56-5.15-9.71-5.11
	c1.08-2.11,2.15-4.22,3.23-6.33c0.81,1.62,1.62,3.24,2.79,5.59c1.3-1.35,3.28-3.07,3.13-3.28c-1.19-1.66-2.78-3.04-4.24-4.5
	c1.24-2.33,2.08-5.04,3.82-6.89c1.6-1.7,4.18-2.47,6.33-3.65c0.22,0.96,0.43,1.92,0.64,2.88c-0.48,0.42-0.95,0.83-1.43,1.25
	c-0.69,0.84-1.37,1.67-2.06,2.51c-1.42,1.31-2.84,2.61-4.26,3.92c0.29,0.36,0.57,0.72,0.86,1.08
	C47.64,89.68,49.24,88.42,50.83,87.16z"/>
<path class="st0" d="M344.59,174.96c-0.42-1.9-0.83-3.81-1.25-5.71c2.14-0.41,4.29-1.22,6.4-1.13c1.86,0.08,3.68,1.16,5.55,1.81
	c-2.06,4.41-1.76,4.83,2.11,4.79c0.96-0.01,2.48,0.86,2.82,1.69c1.45,3.66,2.56,7.45,3.8,11.19c-0.53,0.23-1.06,0.45-1.59,0.68
	c-1.56-3.03-3.13-6.06-4.68-9.07C353.76,177.92,349.17,176.44,344.59,174.96z"/>
<path class="st0" d="M34.4,247.52c1.11,2.35,2.29,4.67,3.31,7.05c4.42,10.33,8.8,20.69,13.74,32.31c-2.26-2.05-4.46-3.15-5.23-4.88
	c-4.41-9.93-8.55-19.98-12.56-30.08c-0.46-1.17,0.51-2.92,0.82-4.4L34.4,247.52z"/>
<path class="st0" d="M275.84,25.74c0.54-0.99,1.08-1.99,1.62-2.99c5.83,2.86,11.69,5.74,17.54,8.61c-0.59,2.28-1.13,4.34-1.84,7.1
	c-1.68-3.17-3.49-3.56-5.27-0.72c-2.03-3.19-3.85-6.05-6.06-9.53c-0.37,1-1.17,2.31-1.32,3.69c-0.41,3.91-1.96,4.72-5.53,2.62
	c1.27-0.32,2.54-0.64,3.43-0.87C277.46,30.75,276.65,28.25,275.84,25.74z M288.29,30.18c-0.37-0.2-0.69-0.46-0.78-0.4
	c-0.2,0.15-0.37,0.44-0.41,0.69c-0.02,0.14,0.23,0.33,0.35,0.49C287.72,30.72,287.98,30.47,288.29,30.18z"/>
<path class="st0" d="M294.13,344.33c-0.02,3.26-2.46,4.62-4.84,5.83c-9.2,4.67-18.45,9.22-27.69,13.82
	c-0.41-0.44-0.82-0.87-1.23-1.31c0.72-1.04,1.22-2.66,2.2-3.04c11.21-4.36,21.57-10.35,31.9-16.39
	C294.36,343.61,294.25,343.97,294.13,344.33z"/>
<path class="st0" d="M85.44,219.78c3.26-1.21,3.32,0.97,3.95,2.98c3.53,11.14,7.19,22.23,10.77,33.21
	c-0.68-0.45-2.52-1.02-3.22-2.25C90.93,243.15,87.82,231.59,85.44,219.78z"/>
<path class="st0" d="M341.59,157.66c-2.69-1.23-5.43-2.35-8.02-3.76c-0.61-0.33-1-1.67-0.92-2.48c0.06-0.62,0.94-1.4,1.62-1.66
	c3.8-1.47,7.65-2.8,11.09-4.91c1.33,0.3,2.67,0.6,4,0.9c0.01-1.5,0.01-3.01,0.02-4.33c4.36,2.26,4.37,2.42,0.75,6.09
	c-0.41,0.41-0.63,1.69-0.36,1.95c0.49,0.47,1.43,0.47,2.13,1.67c-2.16-0.01-4.33-0.08-6.49-0.02c-3.93,0.11-5.03,2.03-3.1,5.35
	C342.07,156.85,341.83,157.25,341.59,157.66z"/>
<path class="st0" d="M34.49,247.52c-1.31-2.07-3.34-4-3.81-6.25c-1.69-8.09-3.05-16.26-4.12-24.46c-0.32-2.49,0.69-5.15,1.09-7.74
	c0.41,0.05,0.81,0.09,1.22,0.14c0.83,6.43,1.51,12.89,2.53,19.3c0.79,4.97,2.07,9.86,2.99,14.8c0.25,1.35,0.02,2.8,0.01,4.2
	L34.49,247.52z"/>
<path class="st0" d="M332.17,312.73c-0.13-0.94-0.73-2.19-0.33-2.76c6.09-8.95,12.28-17.83,18.56-26.64
	c0.42-0.58,1.79-0.48,2.72-0.7c0.36,0.34,0.72,0.68,1.08,1.02c-6.82,9.9-13.64,19.79-20.45,29.69
	C333.22,313.13,332.7,312.93,332.17,312.73z"/>
<path class="st0" d="M368.1,250.23c-4.18,9.86-8.29,19.74-12.62,29.53c-0.39,0.87-2.13,1.15-3.46,1.81
	c4.11-10.6,7.92-20.59,11.91-30.5c0.35-0.88,1.85-1.3,2.81-1.94C367.19,249.5,367.65,249.87,368.1,250.23z"/>
<path class="st0" d="M27.52,203.65c-2.18-19.77-0.4-35.56,3.03-36.48c-0.31,5.98-0.33,12.15-1.03,18.24
	C28.82,191.47,29.8,197.81,27.52,203.65z"/>
<path class="st0" d="M114.96,124.11c-6.88,10.11-13.76,20.23-20.64,30.34c-0.34-0.23-0.67-0.46-1.01-0.68
	c4.78-11.52,11.48-21.76,20.24-30.6C114.02,123.48,114.49,123.79,114.96,124.11z"/>
<path class="st0" d="M315.25,184.72c-0.99-0.91-2.64-1.68-2.86-2.74c-1.66-8.09-3.35-16.14-6.69-23.77
	c-0.83-1.89-0.94-4.09-1.37-6.14c0.41-0.19,0.81-0.37,1.22-0.56c1.11,1.87,2.67,3.6,3.26,5.62c2.43,8.31,4.59,16.69,6.76,25.08
	c0.2,0.76-0.23,1.67-0.37,2.52L315.25,184.72z"/>
<path class="st0" d="M346.03,73c-0.61,0.39-1.2,0.78-1.71,1.11c0.55,1.11,1.1,2.21,1.64,3.31c-0.27,0.19-0.54,0.38-0.81,0.58
	c-1.98-1.64-3.96-3.28-6.11-5.05c0.39-0.31,1.09-0.87,2.32-1.84c-2.46-1.36-4.79-2.65-7.38-4.09c-1.08,2.88-1.87,4.98-2.92,7.76
	c-1.46-1.49-2.6-2.65-4.58-4.67c6.6,1.13,5.34-4.26,7.29-6.82c0.23-0.3-1.41-2.1-2.25-3.14c-0.68-0.84-1.47-1.59-1.59-2.88
	C335.3,62.5,340.65,67.73,346.03,73z"/>
<path class="st0" d="M284.01,85.68c-1.19,0.68-2.37,1.37-4.55,2.62c1.75,0.92,3.31,1.73,5.09,2.67c-1.62,2.13-3.46,4.56-5.12,6.75
	c-3.26-0.8-6.22-1.53-9.93-2.44c0.71-1.29,1.66-3.01,2.5-4.54c1.56,0.86,2.71,1.5,3.86,2.13c0.32-1.37,1.25-2.98,0.83-4.06
	c-1.17-2.97,0.58-3.99,2.61-5.06C280.87,84.39,282.44,85.04,284.01,85.68z"/>
<path class="st0" d="M241.95,22.67c-0.4-3.59-1.26-6.76-6.23-6.12c-0.07,0.76-0.16,1.74-0.28,3.06c-1.35-1.54-2.42-2.75-3.49-3.97
	c0.54-1.89-1.75-5.16,2.55-5.21c3.21,4.57,5.67,5.52,11.16,4.3c0.08,0.57,0.15,1.13,0.24,1.76c1.32-0.41,2.64-0.82,3.95-1.22
	c0.4,1.01,0.81,2.01,1.21,3.02c-1.71,1.36-3.43,2.71-5.26,4.16c1.92,0.3,3.55,0.55,5.18,0.81c-0.06,0.42-0.12,0.85-0.18,1.27
	C247.7,25.01,244.54,25.96,241.95,22.67z"/>
<path class="st0" d="M37.23,98.38c4.16-0.04,7.82,0.86,9.71,5.11c-1.11,1.76-2.21,3.51-3.32,5.27c-1.37-1.54-2.74-3.09-4.57-5.15
	c-1.16,1.72-2.24,3.31-3.34,4.91c-0.53-1-1.08-2.03-1.4-2.63c-1.6,1.27-2.97,2.36-4.35,3.45C31.25,104.94,32.73,100.66,37.23,98.38z
	"/>
<path class="st0" d="M44.4,127.49c-2.94,8.36-5.82,16.74-8.89,25.06c-0.35,0.94-1.75,1.48-2.98,2.45c0.43,0.75,0.99,1.71,1.59,2.74
	c-0.35,0.08-0.73,0.23-0.77,0.18c-0.59-0.99-1.75-2.14-1.57-2.99c0.72-3.47,1.73-6.89,2.88-10.25c1.56-4.56,3.16-9.13,5.14-13.51
	c0.77-1.71,2.62-2.92,3.98-4.36C43.98,127.02,44.19,127.26,44.4,127.49z"/>
<path class="st0" d="M235.69,70.14c1.36,3.6,4.59,3.61,7.82,3.69c0.2,1.58,0.36,2.94,0.54,4.37c-0.75,0.1-1.54,0.2-2.33,0.31
	c-0.16,0.31-0.33,0.63-0.49,0.94c2.22,1.28,4.44,2.57,6.65,3.85c-0.03,0.43-0.07,0.86-0.1,1.29c-1.74,0.42-4.21,1.77-5.08,1.09
	c-2.5-1.98-6.14-3.49-5.76-7.76c0.06-0.64-0.17-1.74-0.58-1.93c-3.41-1.54-2.45-4.79-3.08-7.42
	C234.09,69.09,234.89,69.61,235.69,70.14z"/>
<path class="st0" d="M207.76,315.97c-7.46,0.21-14.93,1.59-22.26-1.6c-2.46-1.07-5.58-0.6-8.39-0.89c-1.19-0.12-2.37-0.4-3.55-0.61
	c-0.02-0.46-0.04-0.93-0.05-1.39c1.32-0.2,2.66-0.66,3.95-0.55c8.14,0.67,16.29,1.33,24.39,2.34c2.05,0.26,3.93,1.8,5.89,2.76
	L207.76,315.97z"/>
<path class="st0" d="M214.53,357.81c0.49,0.06,0.99,0.12,1.48,0.17c0.35,1.36,0.7,2.72,1.16,4.49c-7.18,0.4-13.88,0.77-20.66,1.14
	c0.04-0.02,0,0-0.04,0.02c0.14-0.05,0.33-0.05,0.4-0.14c0.32-0.46,0.6-0.94,0.89-1.42c-4.1-1.56-0.82-4.8-1.69-6.4
	c2.31,1.66,4.88,3.51,6.89,4.95c2.87-1.12,5.2-2.03,7.54-2.95l-0.06-0.03c1.19,0.59,2.39,1.18,3.58,1.77
	C214.18,358.88,214.36,358.35,214.53,357.81z"/>
<path class="st0" d="M368.76,166.56c1.42,0.54,2.91,0.74,2.99,1.2c0.73,3.98,1.23,8.01,1.76,12.02c0.12,0.93,0.09,1.88,0.18,2.81
	c0.48,4.56,0.98,9.12,1.47,13.68c-0.41,0.15-0.81,0.29-1.22,0.44c-0.83-1.3-2.18-2.53-2.38-3.92c-0.6-4.21-0.67-8.49-1.11-12.72
	C370.04,175.89,369.42,171.72,368.76,166.56z"/>
<path class="st0" d="M29.96,109.34c1.37-1.09,2.75-2.18,4.35-3.45c0.32,0.6,0.87,1.63,1.4,2.63c1.09-1.61,2.17-3.2,3.34-4.91
	c1.83,2.06,3.2,3.61,4.57,5.15c-1.11,2.36-2.22,4.72-3.33,7.07c-3.03-1.1-6.03-2.26-9.09-3.27c-0.85-0.28-1.85-0.13-2.78-0.17
	C28.94,111.37,29.45,110.36,29.96,109.34z"/>
<path class="st0" d="M195.84,78.07c-6.04,0.44-12.08,0.87-18.12,1.31c6.7-1.14,2.34-7.75,5.33-10.32c0.67,1.17,1.33,2.34,2.27,4
	c1.65-1.01,3.83-2.34,6.01-3.67c0.42,2.38,0.85,4.76,1.25,7.01c0.95,0.48,2.11,1.05,3.26,1.62L195.84,78.07z"/>
<path class="st0" d="M231.24,164.68l0.02,0.03c-1.2-1.97-2.4-3.94-3.36-5.51c3.43-1.3,6.61-2.65,9.88-3.72
	c3.37-1.1,6.3-0.12,8.71,2.45c-2.11,0.75-4.22,1.5-7.07,2.51c-1.63,4.38-1.73,4.43-5.06,1.76c0.18-0.5,0.35-0.99,0.53-1.49
	c-0.24-0.08-0.47-0.15-0.71-0.23c0.09,0.57,0.18,1.15,0.27,1.72C233.38,163.03,232.31,163.85,231.24,164.68z"/>
<path class="st0" d="M143.65,15.02c0.34,0.42,0.68,0.84,1.02,1.26c0.11,0.72-0.01,1.61,0.38,2.12c1.37,1.85,2.91,3.56,4.39,5.33
	c-0.51,1.06-1.02,2.13-1.54,3.19c-0.42,0.12-0.85,0.25-1.27,0.37c-1.15,0.08-2.3,0.16-3.45,0.24c0.27-0.6,0.85-1.67,0.77-1.72
	c-3.4-2.21-6.86-4.33-10.32-6.46C136.97,17.91,140.31,16.46,143.65,15.02z"/>
<path class="st0" d="M284.01,85.68c-1.57-0.65-3.14-1.29-4.71-1.93c0.48-1.15,0.95-2.31,1.71-4.14c0.63,1.43,0.99,2.27,1.67,3.83
	c1.62-3.81,8.29-1.65,6.95-7.68l-0.06,0c0.57,1.15,1.15,2.3,1.61,3.25c2.32-2.41,4.43-4.61,7.09-7.37c0.89,0.85,2.12,2.01,3.35,3.17
	c-0.28,0.28-0.56,0.56-0.83,0.84c-5.66-1.88-6.53,3.04-8.1,5.84c-1.52-0.62-2.63-1.08-3.75-1.54c-0.14,0.34-0.28,0.67-0.41,1.01
	c0.66,1.26,1.31,2.51,1.79,3.43C287.82,84.9,285.91,85.29,284.01,85.68z"/>
<path class="st0" d="M331.34,314.92c-9.55,12.02-17.24,18.11-19.7,15.73C324.67,316.42,327.39,314.19,331.34,314.92z"/>
<path class="st0" d="M159.48,151.24c-0.87,4.84,3.56,5.84,6.15,6.65c3,0.94,3.01,2.77,2.53,4.35c-0.32,1.06-2.51,1.64-3.94,2.27
	c-1.11,0.49-2.34,0.74-3.51,1.09c-1.27-2.5-2.54-5-3.8-7.51c0.13-2.28,0.25-4.56,0.38-6.84
	C158.02,151.25,158.75,151.25,159.48,151.24z"/>
<path class="st0" d="M79.53,170.08c0.38-0.23,0.77-0.46,1.15-0.69c2.04,3.98,1.32,9.88-1.85,13.46c-0.68,0.77-2.07,1.58-2.93,1.41
	c-3.03-0.62-5.97-1.66-8.73-3.44c1.96-0.04,3.98,0.21,5.86-0.19c1.7-0.36,3.24-1.43,4.7-2.11
	C78.31,175.82,78.92,172.95,79.53,170.08z"/>
<path class="st0" d="M309.46,231.59c1.36-7.53,2.69-15.15,4.2-22.74c0.14-0.72,1.43-1.21,2.25-1.86
	C317.4,216.17,313.64,230.06,309.46,231.59z"/>
<path class="st0" d="M135.94,295.45c4.7-2.36,6.42,3.65,10.19,4.41c4,0.81,7.65,3.3,11.46,5.05c-0.02,0.38-0.05,0.77-0.07,1.15
	c-1.66,0.08-3.61,0.78-4.92,0.14c-5.85-2.83-11.52-6.04-17.25-9.11C135.54,296.55,135.74,296,135.94,295.45z"/>
<path class="st0" d="M100.56,74.25c-0.71,1.67-1.43,3.34-2.14,5.01c-0.3,0.13-0.6,0.26-0.9,0.39c0.27,0.21,0.54,0.42,0.82,0.63
	c3.15,2.18,4.7,5.08,4.05,8.98c-1.08-1.37-2.17-2.74-3.57-4.5c-0.59,1.52-1.02,2.64-1.45,3.76l0.02,0c-0.46-0.67-0.83-1.42-1.4-1.99
	c-0.71-0.71-1.57-1.26-2.36-1.88c0.3-1.97,0.47-3.96,0.93-5.89c0.75-3.12,2.49-5.08,6.06-4.48L100.56,74.25z"/>
<path class="st0" d="M249.16,84.59c5.44,2.9,10.69,6.86,16.89,1.18c-1.57,3.22-1.77,7.27-6.26,7.32c-1.47,0.02-3.17-0.57-4.39-1.43
	C252.81,89.86,247.76,90.24,249.16,84.59z"/>
<path class="st0" d="M87.91,183.15c-0.4,7.56-0.78,14.72-1.16,21.87c-0.33,0.23-0.65,0.46-0.98,0.68c-0.7-0.96-1.89-1.87-2.01-2.9
	C82.53,192.75,84.41,184.1,87.91,183.15z"/>
<path class="st0" d="M150.42,59.96c-1.3-0.06-2.59-0.12-3.89-0.17c-1.24-1.75-3.27-3.38-3.57-5.28c-0.64-4.13-2.54-5.74-6.77-5.03
	c3.2-2.17,6.16-2.97,9.01,0.12c0.56,3.57,2.65,3.93,5.53,2.64c0.62,1.23,1.23,2.45,1.85,3.68
	C151.86,57.26,151.14,58.61,150.42,59.96z"/>
<path class="st0" d="M267.96,313.12c-1.02,2.89-3.02,2.48-5.42,1.58c0.48-2.45,0.95-4.81,1.41-7.18c1.25-2.73,2.27-5.6,3.84-8.14
	c0.69-1.12,2.46-1.57,3.74-2.32c0.49,1.1,0.98,2.19,1.47,3.29c-2.32,2.78-6.21,4.66-5.22,9.34
	C268.02,310.8,267.91,311.98,267.96,313.12z"/>
<path class="st0" d="M337.78,138c-0.12-1.4-0.24-2.79-0.38-4.5c4.62,0.43,2.99-3.44,3.4-6.1c0.34-0.3,0.67-0.59,1.01-0.89
	c1.81,1.94,3.57,3.92,5.45,5.79c0.56,0.56,1.45,0.79,2.19,1.17c0.01,1.26,0.02,2.52,0.03,3.78c-0.96-0.29-1.91-0.74-2.9-0.83
	c-1.13-0.11-2.31-0.04-3.42,0.19C341.35,136.97,339.57,137.52,337.78,138z"/>
<path class="st0" d="M97.37,88.52c0.43-1.12,0.86-2.24,1.45-3.76c1.4,1.76,2.48,3.13,3.57,4.5c0.68,1.25,1.37,2.51,2.16,3.97
	c2.73-0.52,5.65-1.04,5.67,3.23c-0.09,1.92-0.18,3.85-0.27,5.86c-0.81-0.27-2.42-0.8-4.26-1.4c-0.29-3.44-0.73-7-5.77-6.25
	C99.06,92.62,98.21,90.57,97.37,88.52z"/>
<path class="st0" d="M372.81,119.82c-1.5,0.39-3,0.79-4.7,1.24c-0.16-3.66-9.69,1.04-6.74-6.54c1-0.23,2.23-0.52,3.47-0.81
	c2.34-0.7,4.69-1.41,7.03-2.11c0.59,0.71,1.17,1.42,1.76,2.14c-0.23,1.12-0.52,2.23-0.68,3.36
	C372.82,118,372.85,118.92,372.81,119.82z"/>
<path class="st0" d="M354.95,84.54c3.43,4.83,6.87,9.65,10.3,14.48c-1.68,0.19-3.37,0.39-5.05,0.58l0.06,0.01
	c-0.59-0.25-1.18-0.51-1.77-0.76c2.49-5.66-3.92-7.01-5.24-10.82C352.06,86.02,352.85,84.96,354.95,84.54z"/>
<path class="st0" d="M133.63,19.35c3.45,2.13,6.92,4.25,10.32,6.46c0.08,0.05-0.5,1.12-0.77,1.72c-4.56,2.22-8.33,0.56-11.81-2.44
	c-0.2-0.78-0.4-1.57-0.59-2.35C131.78,21.66,135.17,22.58,133.63,19.35z"/>
<path class="st0" d="M202.53,86.43c-8.71,0.66-17.43,1.31-25.99,1.96c0.88-2.43,14-5.14,23.05-4.43
	C200.57,84.79,201.55,85.61,202.53,86.43z"/>
<path class="st0" d="M191.34,69.39c-2.18,1.33-4.36,2.66-6.01,3.67c-0.94-1.66-1.61-2.83-2.27-4c-0.26-0.93-0.52-1.85-0.78-2.78
	c1.86-1.65,3.68-3.34,5.6-4.91c0.98-0.8,2.16-1.38,3.25-2.05C191.19,62.67,191.26,66.03,191.34,69.39z"/>
<path class="st0" d="M231.24,164.68c1.07-0.83,2.14-1.65,3.21-2.48l-0.09,0c3.33,2.67,3.43,2.62,5.06-1.76
	c2.85-1.01,4.96-1.76,7.07-2.51c1.91,0.75,3.83,1.51,6.41,2.52c-2.54,0.83-4.18,1.36-5.82,1.89c-2.04-0.79-6.37,2.21-7.19,5.02
	c-0.21,0.72-0.31,1.48-0.45,2.18C236.54,167.81,233.89,166.25,231.24,164.68z"/>
<path class="st0" d="M150.05,309.98c-0.79,1.05-1.58,2.1-2.37,3.15c-5.08-1.46-10.17-2.98-14.68,2.01c1.42-2.41,2.6-5.04,4.39-7.14
	c0.78-0.91,2.95-1.25,4.28-0.94C144.54,307.73,147.27,308.98,150.05,309.98z"/>
<path class="st0" d="M334.91,91.05c6.73,4.27,9.14,12.32,14.08,18.22c-4.83-0.11-5.84-4.55-8.1-7.47c-2.4-3.1-4.45-6.46-6.65-9.71
	C334.46,91.75,334.69,91.4,334.91,91.05z"/>
<path class="st0" d="M91.56,64.18c2.33-2.1,3.79-5.15,7.89-5.11c1.56,0.02,2.99-2.97,4.78-4.14c2.48-1.62,5.25-2.81,7.89-4.18
	c0.24,0.45,0.49,0.9,0.73,1.35c-6.44,4.51-12.86,9.04-19.34,13.48c-0.39,0.26-1.31-0.26-1.99-0.41
	C91.53,64.84,91.54,64.51,91.56,64.18z"/>
<path class="st0" d="M360.2,99.6c1.68-0.19,3.37-0.39,5.05-0.58c1.28,3.22,5.09,5.94,2.09,9.69c1.58,1,3.05,1.95,4.53,2.89
	c-2.34,0.7-4.69,1.41-7.03,2.11c-0.01-0.54-0.01-1.08-0.02-1.63C365.49,107.11,361.64,103.8,360.2,99.6z"/>
<path class="st0" d="M97.97,48.72c-0.71-0.49-1.6-0.85-2.1-1.5c-1.1-1.43-2-3.01-2.98-4.53c1.51-0.44,3.05-0.8,4.52-1.33
	c4.65-1.66,5.42,3.09,8.03,4.78C102.96,47,100.47,47.86,97.97,48.72z"/>
<path class="st0" d="M150.73,52.24c-2.88,1.29-4.97,0.93-5.53-2.64c1.58-2.76,3.1-5.6,6.85-5.8c0.85-0.05,1.77-0.33,2.55-0.11
	c1.05,0.31,1.99,1,2.98,1.52c-0.89,0.67-1.9,1.24-2.65,2.05C153.46,48.85,152.12,50.57,150.73,52.24z"/>
<path class="st0" d="M300.16,255.15c3.59-6.32,5.1-13.54,8.11-20.11c0.5,0.03,0.99,0.07,1.49,0.1c0.06,1.44,0.57,3.05,0.11,4.29
	c-1.56,4.21-3.24,8.42-5.36,12.37c-0.79,1.47-2.92,2.23-4.44,3.32C300.07,255.12,300.16,255.15,300.16,255.15z"/>
<path class="st0" d="M235.69,70.14c-0.8-0.52-1.6-1.04-2.39-1.56c1.22-2.45,2.58-4.85,3.61-7.37c0.43-1.05,0.17-2.38,0.23-3.58
	l-0.01,0.08c1.09-0.51,2.18-1.02,3.27-1.53c0.34,0.47,0.69,0.93,1.03,1.4c0.64,0.91,1.29,1.82,2.16,3.04
	c-0.08,0.12-0.87,1.23-1.52,2.41c-0.53,0.95-0.88,1.99-1.31,3c0.1,0,0.2-0.01,0.3-0.01c-1.18,0.27-2.61,0.23-3.47,0.9
	C236.67,67.63,236.3,69.03,235.69,70.14z"/>
<path class="st0" d="M273,300.36c-0.49-1.1-0.98-2.19-1.47-3.29c1.64-0.9,3.27-1.83,4.94-2.69c2.96-1.53,5.71-1.9,7.66,1.57
	c0.18,0.57,0.37,1.14,0.55,1.71C280.79,298.56,276.9,299.46,273,300.36z"/>
<path class="st0" d="M259.38,20.86c0.95,0.94,1.91,1.88,2.86,2.82c0.85-1.31,1.7-2.61,3.15-4.83c1.55,0.38,3.91,0.95,6.27,1.53
	c-0.32,0.59-0.64,1.18-0.96,1.77l0.01-0.07c-0.67,0.64-1.33,1.29-2,1.93c-3.37-2.87-3.39,1.15-4.8,2.32
	c-1.27-0.03-2.56-0.24-3.8-0.06c-1.83,0.26-2.69,1.09-0.86,2.66c-1.3-1.61-2.59-3.23-3.89-4.84C256.7,23,258.04,21.93,259.38,20.86z
	"/>
<path class="st0" d="M114.79,279.25c-3.33-4.55-6.75-9.05-9.94-13.7c-0.67-0.97-0.5-2.51-0.66-3.43c1.21,1.38,2.37,2.68,3.51,4
	c3.2,3.74,6.39,7.5,9.59,11.25C116.46,278,115.62,278.62,114.79,279.25z"/>
<path class="st0" d="M280.3,118.06c1.55,0.52,3.56,0.59,4.55,1.64c3,3.19,5.75,6.65,8.28,10.22c0.81,1.14,0.62,2.99,0.11,5.11
	c-3.19-4.66-6.31-9.35-9.59-13.94c-0.87-1.21-2.21-2.08-3.33-3.1L280.3,118.06z"/>
<path class="st0" d="M150.42,59.96c0.72-1.35,1.44-2.69,2.16-4.04c0.77,0.5,1.93,0.83,2.24,1.53c1.92,4.33,3.07,4.73,7.55,2.27
	c1.08,1,2.16,1.99,3.24,2.99c-2.13,0.17-4.31,0.14-6.38,0.6c-1.02,0.23-1.84,1.36-2.74,2.08C151.42,66.97,152.69,61.48,150.42,59.96
	z"/>
<path class="st0" d="M221.97,58.49c-0.73-2.39-1.46-4.77-2.29-7.46c-0.88-0.08-2.15-0.19-3.91-0.34c0.1-2.72,0.19-5.31,0.28-7.89
	c0.41-0.09,0.82-0.17,1.24-0.26c1.24,2.48,2.48,4.96,3.97,7.95c0.56,0,1.8,0,3.87,0c-1.2,2.93-2.23,5.46-3.27,7.99L221.97,58.49z"/>
<path class="st0" d="M72.26,112.26c-4.76-1.81-6.38,1.37-8.15,4.56c-1.69,3.05-1.79,2.99-4.92,1.7
	C61.12,109.76,66.21,107.11,72.26,112.26z"/>
<path class="st0" d="M354.95,84.54c-2.1,0.42-2.89,1.47-1.7,3.49c-2.12,1.21-4.23,2.41-6.57,3.75c-0.08-0.47-0.26-1.43-0.37-2.05
	c-1.63-0.61-3.15-1.17-4.96-1.84c2.47-2.59,4.34-4.56,6.53-6.85c-0.53,2.11-1.43,3.67-1.12,4.95c0.49,2.02,3.44,1.25,4.34-1.22
	c0.37-1.03,0.47-2.17,0.84-4.02C353.25,82.39,354.1,83.47,354.95,84.54z"/>
<path class="st0" d="M169,371.83c-5.89-1.39-11.57-2.72-17.99-4.23C156.9,364.29,168.33,367.08,169,371.83z"/>
<path class="st0" d="M212.78,71.31c1.28,1.62,2.42,3.05,3.86,4.88c3.98-2.63,5.83-0.48,6.88,4.18c-3.49-0.57-6.98-0.52-9.89-1.79
	C210.48,77.2,211.1,74.22,212.78,71.31z"/>
<path class="st0" d="M372.81,119.82c0.04-0.91,0.01-1.83,0.14-2.72c0.16-1.13,0.45-2.24,0.68-3.36c1.3,2.7,2.61,5.4,3.91,8.11
	c-0.38,0.06-0.75,0.13-1.13,0.19c0.17,1.52,0.33,3.04,0.5,4.55c-0.66,0.99-1.32,1.98-1.98,2.97c-1.48-1.41-2.95-2.83-4.43-4.24
	C371.27,123.49,372.04,121.66,372.81,119.82z"/>
<path class="st0" d="M114.79,279.25c0.83-0.63,1.67-1.25,2.5-1.88c3.47,3.36,7.01,6.65,10.34,10.16c0.51,0.54,0.02,2.04-0.05,4.33
	C122.75,287.09,118.77,283.17,114.79,279.25z"/>
<path class="st0" d="M54.23,271.19c1.53-1.21,3.06-2.43,4.56-3.61c1.13,0.53,2.56,1.2,3.99,1.87c0.66,0.53,1.31,1.06,1.94,1.57
	c-3.12,2.02-6.36,4.12-10.1,6.55C54.5,275.63,54.37,273.41,54.23,271.19z"/>
<path class="st0" d="M241.88,90.93c5.17,2.36,9.97,4.54,14.94,6.8C252.54,100.49,244.16,96.74,241.88,90.93z"/>
<path class="st0" d="M65.11,89.06c0.66,1.82,1.64,3.22,1.29,3.78c-1.61,2.58-3.46,5.05-5.5,7.3c-0.97,1.08-2.57,1.6-3.88,2.37
	c-0.34-0.4-0.68-0.81-1.02-1.21C58.78,97.56,61.57,93.82,65.11,89.06z"/>
<path class="st0" d="M314.05,200.29c2.16-3.15-0.71-5.89-0.84-8.88c-0.12-2.66-0.31-4.95,2.04-6.69l-0.07-0.01
	c0.55,5.89,1.1,11.78,1.67,17.85c-1.47-1.19-2.13-1.73-2.8-2.27L314.05,200.29z"/>
<path class="st0" d="M280.32,117.98c-2.02-1.84-4.03-3.7-6.08-5.51c-1.4-1.23-2.77-2.54-4.34-3.52c-1.33-0.84-2.93-1.28-4.93-2.11
	c5.9-1.16,14.11,5.22,15.34,11.22L280.32,117.98z"/>
<path class="st0" d="M206.43,166.29c1.64,1.58,3.03,3.71,4.99,4.61c2.75,1.27,2.45,2.61,1.39,4.52c-3.24-0.84-6.28-1.64-10.21-2.66
	c1.96-1.36,3.01-2.09,3.96-2.76c-1.85-0.54-3.65-1.06-5.44-1.59C202.89,167.71,204.66,167,206.43,166.29z"/>
<path class="st0" d="M355.36,103.43c-5.77-2.42-6.22-3.36-4.88-10.32c2.28,0.61,4.55,1.22,6.02,1.62c0.16,2.43,0.29,4.43,0.42,6.43
	C356.41,101.92,355.89,102.67,355.36,103.43z"/>
<path class="st0" d="M268.71,24c0.67-0.64,1.33-1.29,2-1.93c0.35,0.43,0.7,0.86,1.04,1.29c1.36,0.79,2.72,1.59,4.09,2.38
	c0.81,2.5,1.62,5,2.57,7.93c-0.88,0.22-2.15,0.55-3.43,0.87c-0.21-0.25-0.43-0.5-0.64-0.74c-1.17-1.09-2.33-2.17-3.65-3.41
	c1.02-1.1,1.85-1.98,2.41-2.58c-1.51-1.35-2.85-2.56-4.2-3.76L268.71,24z"/>
<path class="st0" d="M294.13,344.33c0.11-0.36,0.23-0.72,0.34-1.08c3.29-2.43,6.49-4.99,9.91-7.22c1.12-0.73,2.78-0.62,4.2-0.9
	c0.18,0.47,0.36,0.95,0.54,1.42c-3.75,2.67-7.43,5.46-11.31,7.93C296.95,345.02,295.38,344.41,294.13,344.33z"/>
<path class="st0" d="M377.65,157.23c1.4-0.62,3.12-2.08,4.14-1.7c2.39,0.91,1.62,3.15,0.89,5.05c-0.68,0.47-1.35,0.93-2.03,1.4
	c0.12,0.17,0.24,0.34,0.35,0.51c0.73-0.41,1.46-0.82,2.19-1.24l0,0c0.68,0.2,1.37,0.4,2.05,0.6c0.13,3.79-2.31,3.5-4.85,3.05
	c-0.87-0.16-1.73-0.35-2.59-0.52c-0.29-1.66-0.58-3.31-0.87-4.97c0.25-0.77,0.5-1.53,0.75-2.3L377.65,157.23z"/>
<path class="st0" d="M100.56,74.25l0.06,0.03c0.11-5.67,5.18-10.27,10.47-9.49c-0.22,1.15-0.44,2.29-0.66,3.43
	C107.14,70.23,103.85,72.24,100.56,74.25z"/>
<path class="st0" d="M201.04,27.75c-4.31,0.38-8.61,0.87-12.93,1.06c-0.82,0.04-1.69-1.1-2.53-1.7c0.12-0.37,0.23-0.73,0.35-1.1
	c4.66-0.1,9.32-0.25,13.97-0.21c0.38,0,0.75,1.33,1.12,2.04L201.04,27.75z"/>
<path class="st0" d="M277.52,99.92c7.37,7.45,7.38,7.46,6.89,11.33C275.5,102.24,275.5,102.24,277.52,99.92z"/>
<path class="st0" d="M134.66,83.02l0,0.06c1.18,1.69,2.36,3.38,4.12,5.91c-0.54,0.58-1.47,2.1-2.84,2.9
	c-0.78,0.46-2.24-0.26-3.4-0.45c0.27-1.03,0.89-2.11,0.75-3.09c-0.21-1.44-0.95-2.8-1.57-4.47
	C132.46,83.67,133.56,83.34,134.66,83.02z"/>
<path class="st0" d="M227.92,369.71c4.76-1.12,9.52-2.24,14.83-3.49c-2.67,4.99-11.38,6.57-14.82,3.41L227.92,369.71z"/>
<path class="st0" d="M208.94,214.82c0.05-0.8,0.11-1.59,0.16-2.39c1.85,0.99,3.71,1.98,6.06,3.23c0.69-1.05,1.42-2.19,2.16-3.32
	c1.36,2.26,2.72,4.52,4.08,6.77c-3.02,1.31-5.5,1.31-7.69-1.83C212.81,215.98,210.57,215.61,208.94,214.82z"/>
<path class="st0" d="M240.41,337.2l0.01-0.02c-2.4,1.9-4.8,3.8-7.2,5.7c-0.38-0.17-0.75-0.33-1.13-0.5
	c0.22-1.18,0.44-2.35,0.65-3.53c0.13,0.21,0.25,0.41,0.38,0.62c0.11-0.14,0.22-0.29,0.34-0.43c-0.25-0.03-0.5-0.06-0.75-0.08
	c-1.28-1.21-2.55-2.41-3.62-3.42c2.97,0.35,5.53,0.62,8.08,0.96C238.26,336.65,239.33,336.96,240.41,337.2z"/>
<path class="st0" d="M264.35,49.78c4.41,1.95,8.65,3.82,13.64,6.02C270.39,57.45,266.39,55.59,264.35,49.78z"/>
<path class="st0" d="M203.15,39.86c-3.73,2.49-8.7,1.52-11.1-2.15C196.12,36.51,200.13,35.55,203.15,39.86z"/>
<path class="st0" d="M360.2,99.6c1.44,4.2,5.28,7.5,4.62,12.48c-1.13-0.34-2.25-0.67-3.38-1.01c-0.33-1.26-0.27-3.2-1.06-3.67
	c-4.57-2.68-2.46-5.17-0.12-7.79L360.2,99.6z"/>
<path class="st0" d="M289.63,75.75c-0.69-1.08-1.37-2.15-1.58-2.47c1.4-3.19,2.51-5.71,3.9-8.85c1.33,1.68,2.53,3.19,3.02,3.82
	c-2.01,2.79-3.71,5.15-5.4,7.5L289.63,75.75z"/>
<path class="st0" d="M245.66,14.73c-5.49,1.22-7.95,0.27-11.16-4.3c1.97,0.03,3.97-0.13,5.92,0.14c1.97,0.27,3.88,0.97,6.15,1.57
	C246.26,13.01,245.96,13.87,245.66,14.73z"/>
<path class="st0" d="M360.26,99.61c-2.34,2.62-4.45,5.11,0.12,7.79c0.8,0.47,0.73,2.41,1.06,3.67c-0.38,0.61-0.75,1.21-1.46,2.36
	c-2.52-3.1-5.48-5.56-4.62-10.01c0.52-0.76,1.05-1.51,1.57-2.27c0.52-0.77,1.04-1.54,1.56-2.31
	C359.08,99.11,359.67,99.36,360.26,99.61z"/>
<path class="st0" d="M275.85,42.83c4.72,1.24,11.27,6.44,10.93,8.81c-4.34-2.43-8.65-4.84-12.95-7.25
	C274.5,43.87,275.17,43.35,275.85,42.83z"/>
<path class="st0" d="M88.69,167.87c4.48,4.74-1.42,8.97-0.05,13.6C84.99,179.25,85.06,175.91,88.69,167.87z"/>
<path class="st0" d="M202.53,86.43c-0.98-0.82-1.95-1.65-2.93-2.47c4.7-0.22,9.41-0.45,14.11-0.67c0.07,0.56,0.13,1.12,0.2,1.69
	C210.78,88.65,206.37,86.19,202.53,86.43z"/>
<path class="st0" d="M362.93,136.03c-6.98-1.16-4.51-7.24-6.31-10.75C359.85,127.81,361.22,131.53,362.93,136.03z"/>
<path class="st0" d="M91.56,64.18c-0.01,0.33-0.03,0.66-0.04,0.99c-2.12,4.17-4.37,8.11-9.87,8.49c-0.64,0.04-1.17,1.63-1.73,2.47
	c-0.04-0.07-0.51-0.87-1.09-1.86C83.08,70.89,87.32,67.54,91.56,64.18z"/>
<path class="st0" d="M307.64,61.13c-4.11,2.64-6.08,1.62-11.91-5.27C301.45,54.57,302.6,60.98,307.64,61.13z"/>
<path class="st0" d="M157.29,151.26c-0.13,2.28-0.25,4.56-0.38,6.84c-0.26,0.67-0.35,1.54-0.83,1.95c-0.91,0.78-2.04,1.3-3.08,1.92
	c-0.23-0.83-0.34-1.73-0.73-2.48c-0.39-0.72-1.07-1.28-1.82-2.13C152.8,155.26,155.05,153.26,157.29,151.26z"/>
<path class="st0" d="M160.18,93.11c-4.73,3.84-10.11,5.09-11.97,2.12c3.97-1.27,7.77-2.49,11.57-3.71
	C159.91,92.05,160.05,92.58,160.18,93.11z"/>
<path class="st0" d="M113.81,121.52c3.21-3.14,6.11-5.97,9.89-9.66C122.78,118.49,118.44,122.51,113.81,121.52z"/>
<path class="st0" d="M370.5,125.32c1.48,1.41,2.95,2.83,4.43,4.24l0-0.01c-0.48,0.29-0.95,0.57-1.43,0.86
	c-1.19,0.45-2.39,0.89-3.58,1.34c-2-2.03-5.49-3.23-4.06-7.45C367.49,124.65,369,124.99,370.5,125.32z"/>
<path class="st0" d="M259.38,20.86c-1.34,1.07-2.68,2.15-4.02,3.22c-1.21-0.51-4.26,0.44-2.15-2.71c2.03-1.98,4.06-3.96,6.08-5.94
	c1.05,0.33,2.11,0.66,4.08,1.27C261.73,18.41,260.56,19.63,259.38,20.86z"/>
<path class="st0" d="M349.45,133.46c-0.74-0.38-1.63-0.61-2.19-1.17c-1.88-1.87-3.64-3.85-5.45-5.79c0.65-1.95,1.3-3.89,2.09-6.24
	C345.79,124.77,347.62,129.12,349.45,133.46z"/>
<path class="st0" d="M244.49,365.54c3.6-1.05,6.86-2.05,10.16-2.9c0.56-0.14,1.42,0.24,1.9,0.66c0.24,0.21,0.12,1.18-0.16,1.59
	C254.91,367.06,247.42,367.66,244.49,365.54z"/>
<path class="st0" d="M114.72,48.78c3.8-2.07,7.6-4.13,11.37-6.18c0.49,2.92-3.63,6.02-10.46,7.5
	C115.32,49.66,115.02,49.22,114.72,48.78z"/>
<path class="st0" d="M323.53,222.8c-0.88,1.49-1.77,2.99-2.8,4.73c-0.83-0.89-1.67-1.78-2.83-3.02c3.93-1.73,0.47-9.35,7.47-8.46
	C323.91,218.07,321.27,219.77,323.53,222.8z"/>
<path class="st0" d="M275.85,42.83c-0.67,0.52-1.35,1.04-2.02,1.57c-2.49-2.66-5.29-4.28-9.18-3.33c-0.38,0.09-1.3-2.05-1.97-3.16
	c0.39-0.45,0.77-0.9,1.16-1.35C267.84,38.64,271.84,40.74,275.85,42.83z"/>
<path class="st0" d="M193.22,18.79c-5.28,2.28-3.08-3.47-6.29-4.22c2.38-1.29,3.91-2.12,6.2-3.37
	C193.16,14.19,193.19,16.39,193.22,18.79z"/>
<path class="st0" d="M150.8,34.8c-2.94,1.28-5.86,2.61-8.84,3.78c-0.47,0.19-1.21-0.32-1.82-0.5c0.23-0.6,0.32-1.6,0.72-1.75
	c3.07-1.18,6.21-2.19,9.33-3.25C150.39,33.66,150.6,34.23,150.8,34.8z"/>
<path class="st0" d="M268.9,24.04c1.35,1.21,2.69,2.41,4.2,3.76c-0.56,0.6-1.38,1.48-2.41,2.58c1.32,1.23,2.49,2.32,3.65,3.41
	C267.98,33.77,266.7,31.13,268.9,24.04z"/>
<path class="st0" d="M50.78,113.63c-0.17-1.11-0.85-2.49-0.42-3.27c0.99-1.81,2.51-3.32,3.82-4.95c0.42,0.85,1.41,1.96,1.16,2.51
	c-0.87,1.93-2.16,3.67-3.3,5.47C51.62,113.48,51.2,113.55,50.78,113.63z"/>
<path class="st0" d="M367.06,159.3c-1.24-4.63-2.16-8.05-3.23-12.05C369.36,149.98,368.43,154,367.06,159.3z"/>
<path class="st0" d="M298.32,329.6c-0.28-0.41-0.56-0.82-0.83-1.24c0.63-3.16,1.33-6.25,6.17-5.58
	C303.02,326.19,301.98,328.85,298.32,329.6z"/>
<path class="st0" d="M178.69,329.94c1.4,0.8,2.81,1.59,4.21,2.39c-1.85,1.14-3.71,2.28-5.56,3.42
	C177.79,333.81,178.24,331.88,178.69,329.94z"/>
<path class="st0" d="M323.53,222.8c-2.26-3.03,0.38-4.73,1.84-6.75c1.98,1.05,3.96,2.1,5.94,3.15l-0.01,0.06
	C328.71,220.45,326.12,221.63,323.53,222.8z"/>
<path class="st0" d="M241.42,57.57c-0.34-0.47-0.69-0.93-1.03-1.4c1.8-1.06,2.67-2.1-0.02-3.28c0.23-0.18,0.58-0.59,1.01-0.78
	c1.44-0.62,2.92-1.17,4.38-1.75c-0.34,1.49-0.38,3.15-1.12,4.41C243.96,55.93,242.53,56.65,241.42,57.57z"/>
<path class="st0" d="M326.86,141.42c-0.2-0.79-0.74-1.69-0.54-2.36c0.54-1.81,1.29-4.96,2.13-5.02c3.53-0.23,1.24,2.86,1.89,4.41
	c0.16,0.38,0.54,0.66,0.83,0.99C329.73,140.09,328.3,140.76,326.86,141.42z"/>
<path class="st0" d="M198.47,203.19c1.04,3.67-3.52,3.76-4.09,6.39c-1.58-0.98-3.02-3.05-5.02-0.61c-0.14-0.16-0.28-0.33-0.41-0.51
	c0.68-1.41,1.36-2.81,2.04-4.22c0.21,0.37,0.42,0.73,0.62,1.1c2.03-0.76,4.06-1.51,6.1-2.27
	C197.96,203.14,198.21,203.17,198.47,203.19z"/>
<path class="st0" d="M166,48.3c-1.89-1.86-3.78-3.72-6.32-6.23c1.64-0.4,3.65-1.22,3.86-0.89c1.34,2.1,2.28,4.46,3.35,6.73
	C166.59,48.04,166.29,48.17,166,48.3z"/>
<path class="st0" d="M259.29,15.43c-2.03,1.98-4.06,3.96-6.08,5.94c-0.32-0.46-0.63-0.92-0.95-1.37c0.43-0.77,0.87-1.54,1.88-3.34
	c-1.73,0.94-2.4,1.3-3.07,1.66l-0.01-0.03c-0.4-1.01-0.81-2.01-1.21-3.02C253,15.32,256.14,15.38,259.29,15.43z"/>
<path class="st0" d="M189.91,172.68c0.19,1.29,0.38,2.57,0.57,3.86c-1.23,0.02-3.3,0.49-3.56-0.01c-1.04-1.95-5.24-2.35-3.13-5.89
	C185.83,171.32,187.87,172,189.91,172.68z"/>
<path class="st0" d="M115.01,28.54c-0.98-3.26,1.88-3.36,3.61-4.11c1.56-0.68,3.36-0.81,5.05-1.19c0.17,0.55,0.34,1.1,0.5,1.64
	c-1.87,0.74-3.75,1.47-5.62,2.22c-1.19,0.47-2.38,0.96-3.57,1.44L115.01,28.54z"/>
<path class="st0" d="M130.77,22.74c0.2,0.78,0.39,1.57,0.59,2.35c-0.08,0.9-0.15,1.81-0.28,3.23c-1.5-0.44-3.43-0.99-6.64-1.92
	C127.6,25.36,126.62,20.58,130.77,22.74z"/>
<path class="st0" d="M42.14,89.86c1.47,1.46,3.06,2.84,4.24,4.5c0.15,0.21-1.82,1.93-3.13,3.28c-1.18-2.35-1.99-3.97-2.79-5.59
	C41.02,91.32,41.58,90.59,42.14,89.86z"/>
<path class="st0" d="M227.32,391.59c-1.67-0.69-3.34-1.39-5.1-2.12c2.99-3.21,6.86-2.44,8.78,1.51
	C229.77,391.19,228.55,391.39,227.32,391.59z"/>
<path class="st0" d="M208.6,15.87c-0.13-0.66-0.32-1.63-0.5-2.59c0.3-0.19,0.6-0.37,0.9-0.56c1.16,1.88,2.32,3.76,3.53,5.74
	c-2.62,0.21-4.89,0.4-7.16,0.58c-0.19-0.31-0.37-0.62-0.56-0.93C205.89,17.49,206.96,16.85,208.6,15.87z"/>
<path class="st0" d="M149.43,23.73c-1.48-1.77-3.02-3.48-4.39-5.33c-0.38-0.52-0.26-1.41-0.38-2.12c2.52,0.51,5.04,1.02,7.04,1.42
	c-0.51,1.79-1.05,3.64-1.58,5.48C149.9,23.37,149.66,23.55,149.43,23.73z"/>
<path class="st0" d="M365.79,299.73c-2.64,0.17-3.6-1.13-3.13-4c1.93-0.42,4.02-0.88,6.1-1.34
	C367.77,296.17,366.78,297.95,365.79,299.73z"/>
<path class="st0" d="M221.87,58.48c0.58,0.88,1.79,2.36,1.63,2.53c-1.26,1.32-2.79,2.39-3.81,3.2c-0.76-1.91-1.28-3.2-1.82-4.56
	c1.3-0.37,2.7-0.77,4.1-1.16L221.87,58.48z"/>
<path class="st0" d="M387.26,218.97c0.02-1.74,0.03-3.47,0.05-5.6c2.15-0.7,2.11-0.68,3.62,1.96c0.46,0.81,1.21,1.45,1.83,2.17
	l-0.06,0.39c0,0-0.34,0.2-0.34,0.2c-1.1,0.96-2.2,1.91-3.3,2.87C388.46,220.3,387.86,219.63,387.26,218.97z"/>
<path class="st0" d="M104.61,33.22c1.52,1.3,3.05,2.6,4.77,4.07c-2.36,3.22-4.44,0.06-6.53-0.11c0.62-1.31,1.23-2.62,1.85-3.93
	L104.61,33.22z"/>
<path class="st0" d="M31.77,294.79c3.53-1.75,6.83-1.38,10.8,1.78c-3.91-0.11-6.94-0.2-9.97-0.28
	C32.33,295.79,32.05,295.29,31.77,294.79z"/>
<path class="st0" d="M165.61,62.71c-1.08-1-2.16-1.99-3.24-2.99c4.06-2.19,6.45-0.89,7.19,3.9
	C168.24,63.31,166.93,63.01,165.61,62.71z"/>
<path class="st0" d="M364.83,145.28c-0.93-0.73-2.39-1.29-2.68-2.22c-0.46-1.46-0.15-3.16-0.16-4.76c0.54-0.04,1.09-0.09,1.63-0.13
	c0.74,1.96,1.47,3.93,2.21,5.89C365.49,144.47,365.16,144.88,364.83,145.28z"/>
<path class="st0" d="M313.46,264.8c0.4-0.77,0.81-1.54,1.42-2.72c1.71,0.43,3.66,0.92,6.36,1.59c-1.69,1.58-2.61,2.43-3.53,3.28
	C316.29,266.24,314.88,265.52,313.46,264.8z"/>
<path class="st0" d="M374.93,129.56c0.66-0.99,1.32-1.98,1.98-2.97c0.53-0.45,1.07-0.89,1.6-1.34c0.51,1.59,1.38,3.19,1.35,4.76
	c-0.02,0.7-1.88,1.36-2.9,2.03C376.29,131.21,375.61,130.38,374.93,129.56L374.93,129.56z"/>
<path class="st0" d="M259.25,28.92c-1.83-1.57-0.97-2.4,0.86-2.66c1.24-0.18,2.53,0.03,3.8,0.06c0.36,1.03,0.72,2.06,1.41,4.06
	C262.79,29.78,261.02,29.35,259.25,28.92z"/>
<path class="st0" d="M166.29,154.2c-1.59-0.77-3.18-1.53-4.77-2.3c0.13-0.47,0.26-0.94,0.39-1.4c2.68-0.1,5.36-0.2,8.04-0.31
	C168.73,151.52,167.51,152.86,166.29,154.2z"/>
<path class="st0" d="M80.92,63.52c-0.19-0.18-0.36-0.38-0.52-0.59c0.05-1.38,0.1-2.75,0.17-5.05c2.03,0.43,3.94,0.85,5.86,1.26
	C84.6,60.6,82.76,62.06,80.92,63.52z"/>
<path class="st0" d="M218.28,328.97c-1.56,0.63-3.12,1.25-4.92,1.98c-0.48-1.71-0.91-3.25-1.51-5.4c2.36,0.83,4.41,1.56,6.47,2.28
	C218.3,328.21,218.29,328.59,218.28,328.97z"/>
<path class="st0" d="M93.63,84.65c0.79,0.62,1.66,1.17,2.36,1.88c0.56,0.57,0.94,1.32,1.4,1.99c-0.82,0.92-1.63,1.84-2.45,2.76
	c-0.41-0.07-0.83-0.14-1.24-0.22C93.67,88.92,93.65,86.78,93.63,84.65z"/>
<path class="st0" d="M385.24,161.86c-0.68-0.2-1.37-0.4-2.05-0.6c1.91-1.07,3.82-2.14,5.73-3.2c0.22,0.88,0.43,1.76,0.65,2.63
	C388.14,161.08,386.69,161.47,385.24,161.86z"/>
<path class="st0" d="M222.67,179.98c1.01-2.17,2.02-4.35,3.02-6.52c0.37,0.08,0.73,0.15,1.1,0.23c-0.03,1.24-0.07,2.48-0.1,3.72
	C225.1,177.87,225.81,181.95,222.67,179.98z"/>
<path class="st0" d="M98.46,95.65c-0.33,1-0.66,1.99-0.99,2.99c-0.74-1.57-1.47-3.14-2.21-4.71c0.32-0.18,0.64-0.36,0.96-0.55
	C96.96,94.14,97.71,94.89,98.46,95.65z"/>
<path class="st0" d="M225.28,224.51c-1.11,0.08-2.23,0.16-3.34,0.24c0.63-0.97,1.26-1.94,1.89-2.91
	C224.31,222.73,224.8,223.62,225.28,224.51z"/>
<path class="st0" d="M227.93,369.63c-0.88,0.7-1.76,1.39-2.63,2.09c-0.27-0.43-0.55-0.86-0.82-1.29c1.15-0.24,2.29-0.48,3.44-0.72
	C227.92,369.71,227.93,369.63,227.93,369.63z"/>
<path class="st0" d="M50.24,115.19c-1.03,0.53-2.06,1.06-3.09,1.59c-0.15-0.2-0.3-0.4-0.46-0.59c0.89-0.8,1.77-1.61,2.66-2.41
	C49.65,114.25,49.95,114.72,50.24,115.19z"/>
<path class="st0" d="M271.75,23.36c-0.35-0.43-0.7-0.86-1.04-1.29l-0.01,0.07c0.43-0.46,0.86-0.93,1.29-1.39
	c1.04,0.4,2.08,0.79,3.16,1.2c-0.29,0.54-0.32,0.7-0.39,0.72C273.76,22.91,272.75,23.13,271.75,23.36z"/>
<path class="st0" d="M374.94,129.55c0.68,0.83,1.35,1.66,2.03,2.49c-0.21,0.29-0.43,0.58-0.64,0.87c-0.94-0.83-1.88-1.66-2.81-2.5
	C373.99,130.12,374.46,129.84,374.94,129.55z"/>
<path class="st0" d="M75.27,317.51c-0.59-0.64-1.18-1.28-1.77-1.93C74.08,316.23,74.68,316.87,75.27,317.51z"/>
<path class="st0" d="M53.16,288.95c-0.47,0.08-0.93,0.16-1.4,0.24c-0.11-0.51-0.22-1.03-0.57-2.72
	C52.32,287.89,52.74,288.42,53.16,288.95z"/>
<path class="st0" d="M53.12,293.52c0.47,0.73,0.94,1.46,1.4,2.18C54.05,294.98,53.59,294.25,53.12,293.52z"/>
<path class="st0" d="M58.66,296.85c-0.49-0.72-0.99-1.44-1.48-2.17C57.68,295.41,58.17,296.13,58.66,296.85z"/>
<path class="st0" d="M73.67,319.87c0.6,0.62,1.2,1.24,1.8,1.85C74.87,321.1,74.27,320.49,73.67,319.87z"/>
<path class="st0" d="M251.07,18.32c0.67-0.36,1.34-0.72,3.07-1.66c-1.01,1.8-1.44,2.57-1.88,3.34
	C251.86,19.44,251.46,18.88,251.07,18.32z"/>
<path class="st0" d="M296.81,135.6c-0.64,0.92-0.98,1.39-1.31,1.87c-0.13-0.12-0.26-0.24-0.39-0.36
	C295.54,136.72,295.98,136.33,296.81,135.6z"/>
<path class="st0" d="M201.02,27.85c0.48-0.19,0.97-0.38,0.22-0.09c0.76,0.02,0.28,0.01-0.2-0.01L201.02,27.85z"/>
<path class="st0" d="M312.94,153.02c-0.31-0.21-0.61-0.42-0.92-0.63c0.09-0.09,0.24-0.26,0.25-0.25c0.28,0.21,0.55,0.44,0.82,0.67
	C313.04,152.88,312.99,152.95,312.94,153.02z"/>
<path class="st0" d="M377.69,157.13c-0.25,0.77-0.5,1.53-0.75,2.3C377.19,158.66,377.44,157.89,377.69,157.13z"/>
<path class="st0" d="M331.31,219.2c0.62,0.02,1.24,0.04,1.86,0.06c-0.02,0.14-0.04,0.28-0.06,0.43c-0.6-0.14-1.2-0.28-1.81-0.42
	L331.31,219.2z"/>
<path class="st0" d="M195.85,78.02c0.5-0.11,1-0.21,1.5-0.32c-0.04,0.34-0.08,0.68-0.12,1.01c-0.46-0.22-0.92-0.43-1.38-0.65
	L195.85,78.02z"/>
<path class="st0" d="M125.91,112.85c0.03,0.22,0.11,0.37,0.06,0.47c-0.03,0.07-0.22,0.08-0.34,0.11
	C125.72,113.26,125.8,113.09,125.91,112.85z"/>
<path class="st0" d="M367.43,247.73c0.1,0.07,0.25,0.12,0.28,0.22c0.04,0.1-0.04,0.24-0.07,0.36c-0.15-0.11-0.31-0.21-0.46-0.32
	C367.26,247.9,367.34,247.81,367.43,247.73z"/>
<path class="st0" d="M290.57,305.47c0.4,0.4,0.8,0.8,1.2,1.2C291.37,306.28,290.97,305.88,290.57,305.47z"/>
<path class="st0" d="M90.35,55.81c-0.35-0.69-0.7-1.38-1.06-2.06c0.11-0.08,0.23-0.15,0.34-0.23c0.53,0.56,1.07,1.12,1.6,1.68
	C90.93,55.41,90.64,55.61,90.35,55.81z"/>
<path class="st0" d="M378.8,150.07c0.37,0.34,0.74,0.67,1.1,1.01c-0.54-0.09-1.09-0.18-1.63-0.26
	C378.45,150.56,378.62,150.31,378.8,150.07z"/>
<path class="st0" d="M271.99,20.75c-0.43,0.46-0.86,0.93-1.29,1.39c0.32-0.59,0.64-1.18,0.96-1.77
	C271.8,20.47,271.91,20.6,271.99,20.75z"/>
<path class="st0" d="M191.33,321.61c0.44,0.12,0.88,0.24,1.32,0.36c-0.43,0.1-0.86,0.19-1.28,0.29
	C191.36,322.04,191.35,321.82,191.33,321.61z"/>
<path class="st0" d="M161.39,169.18c0.33,0.08,0.66,0.17,0.99,0.25c-0.18,0.2-0.35,0.4-0.53,0.6
	C161.7,169.75,161.55,169.47,161.39,169.18z"/>
<path class="st0" d="M293.83,55.51c0.16,0.04,0.32,0.08,0.48,0.12c-0.08,0-0.17,0.03-0.23,0c-0.09-0.05-0.17-0.14-0.25-0.22
	L293.83,55.51z"/>
<path class="st0" d="M293.84,55.42c-0.21,0.03-0.43,0.06-0.64,0.09c0.08-0.05,0.16-0.15,0.23-0.14c0.14,0.02,0.27,0.09,0.41,0.14
	C293.83,55.51,293.84,55.42,293.84,55.42z"/>
<path class="st0" d="M162.67,148.22c-0.06,0.42-0.13,0.83-0.19,1.25C162.54,149.05,162.6,148.63,162.67,148.22z"/>
<path class="st0" d="M163.33,147.74l-0.34,0.24l-0.32,0.27C162.89,148.08,163.11,147.91,163.33,147.74z"/>
<path class="st0" d="M237.13,57.62c-0.17,0.05-0.34,0.09-0.41,0.11c0.07,0,0.24-0.01,0.4-0.03
	C237.12,57.7,237.13,57.62,237.13,57.62z"/>
<polygon class="st0" points="150.42,74.65 150.41,74.82 150.42,74.67 "/>
<path class="st0" d="M146.62,27.29c0.42-0.12,0.85-0.25,1.27-0.37C147.47,27.05,147.05,27.17,146.62,27.29z"/>
<path class="st0" d="M285.41,300.42c0.25,0.45,0.51,0.91,0.76,1.36C285.92,301.33,285.67,300.88,285.41,300.42z"/>
<path class="st0" d="M286.38,293.02c-0.27,0.22-0.54,0.43-0.81,0.65c-0.04-0.21-0.09-0.41-0.13-0.62
	C285.75,293.04,286.07,293.03,286.38,293.02z"/>
<path class="st0" d="M311.98,251.51c-0.03-0.18-0.05-0.35-0.08-0.53c0.03,0.06,0.09,0.13,0.08,0.19c-0.01,0.11-0.06,0.22-0.09,0.33
	C311.89,251.5,311.98,251.51,311.98,251.51z"/>
<polygon class="st0" points="207.74,316.02 207.89,315.97 207.76,315.97 "/>
<path class="st0" d="M390.99,168.33c-0.09-0.15-0.14-0.31-0.17-0.48l0.24,0.17L390.99,168.33z"/>
<path class="st0" d="M387.62,152.45c-0.27-0.2-0.54-0.39-0.81-0.59l0.04-0.41c0.19-0.08,0.37-0.19,0.54-0.31
	C387.47,151.57,387.55,152.01,387.62,152.45z"/>
<polygon class="st0" points="314.05,200.3 314.03,200.45 314.06,200.29 "/>
<path class="st0" d="M101.43,307.95c-0.2,0.1-0.41,0.19-0.61,0.29c-0.01-0.15-0.02-0.3-0.03-0.46c0.21,0.09,0.42,0.18,0.63,0.27
	L101.43,307.95z"/>
<path class="st0" d="M74.67,60.24c-0.08-1-0.15-2.01-0.23-3.01c0.48,0.05,1.39,0.09,1.39,0.16c0.04,0.98-0.05,1.96-0.1,2.94
	C75.38,60.29,75.03,60.27,74.67,60.24z"/>
<path class="st0" d="M133.69,370.11c1.89,1.39,3.77,2.79,6.44,4.76c-4.56,0.97-8.03,1.89-11.56,2.34c-0.87,0.11-1.93-1.29-2.91-2
	c0.75-0.92,1.32-2.16,2.28-2.7c1.83-1.01,3.88-1.63,5.84-2.4C133.78,370.11,133.69,370.11,133.69,370.11z"/>
<path class="st0" d="M181.99,389.1c0.91-2.74,1.41-4.26,2.04-6.15c1.12,1.95,2.38,1.25,4.09,1.19c2.48-0.09,5.02,1.22,7.53,1.94
	c-0.13,0.36-0.26,0.72-0.39,1.08C191.18,387.75,187.09,388.35,181.99,389.1z"/>
<path class="st0" d="M207.8,382.67c4.13,0.07,8.26,0.13,12.4,0.2c0.02,0.5,0.04,0.99,0.06,1.49c-4.13,0.35-8.26,0.69-12.4,1.04
	C207.84,384.49,207.82,383.58,207.8,382.67z"/>
<path class="st0" d="M115.89,364.75c4.29-0.45,5.05,1.45,4.27,3.88c-0.37,1.14-2,1.87-3.06,2.79
	C116.7,369.23,116.31,367.04,115.89,364.75z"/>
<path class="st0" d="M55.65,316.43c-0.73,1.58-1.46,3.16-2.67,5.79c-0.88-1.32-1.75-2.63-2.62-3.93c1.67-0.95,3.35-1.89,5.02-2.84
	C55.47,315.78,55.56,316.1,55.65,316.43z"/>
<path class="st0" d="M21.08,261.3c-0.52-2.53-0.88-4.27-1.47-7.15c2.18,1.28,3.88,2.27,6.03,3.54
	C23.97,259.01,22.81,259.94,21.08,261.3z"/>
<path class="st0" d="M387.26,218.97c0.6,0.66,1.2,1.32,1.8,1.99c-0.23,1.12-0.46,2.24-0.69,3.36c-1.5-0.63-3-1.27-5.55-2.35
	C384.98,220.52,386.12,219.74,387.26,218.97z"/>
<path class="st0" d="M28.86,132.98c-1.38-1-2.88-1.88-4.07-3.07c-0.26-0.26,0.57-1.62,0.9-2.47c1.51,1.25,3.03,2.49,4.54,3.74
	C29.78,131.78,29.32,132.38,28.86,132.98z"/>
<path class="st0" d="M17.4,204.38c-2.9-0.14-4.62-0.11-6.31-0.36c-0.74-0.11-1.59-0.64-2.02-1.25c-0.25-0.35,0.01-1.55,0.39-1.79
	c0.62-0.39,1.72-0.64,2.29-0.34C13.48,201.56,15.03,202.77,17.4,204.38z"/>
<path class="st0" d="M25.45,136.68c-1.37-0.83-2.73-1.66-4.48-2.72c0.93-0.86,1.61-1.49,2.62-2.44c0.99,1.54,1.84,2.87,2.69,4.2
	C26,136.04,25.73,136.36,25.45,136.68z"/>
<line class="st0" x1="377.42" y1="276.04" x2="377.43" y2="275.94"/>
<path class="st0" d="M205.84,381.6c-0.4,0.86-0.8,1.72-1.2,2.58c-0.32-0.26-0.65-0.51-0.97-0.77c0.75-0.6,1.51-1.19,2.26-1.79
	L205.84,381.6z"/>
<path class="st0" d="M380.9,224.52c0.45,0.38,0.89,0.75,1.34,1.13c-0.5,0.05-0.99,0.11-1.48,0.16
	C380.8,225.39,380.85,224.95,380.9,224.52z"/>
<path class="st0" d="M343.5,320.13c0.44,0.15,0.88,0.3,1.31,0.45c-0.5,0.3-1.01,0.61-1.51,0.91
	C343.37,321.03,343.44,320.58,343.5,320.13z"/>
<path class="st0" d="M17.18,258.29c0.7,0.1,1.2,0.03,1.35,0.22c0.19,0.25,0.1,0.72,0.13,1.1c-0.28-0.04-0.64,0.01-0.82-0.14
	C17.6,259.26,17.5,258.9,17.18,258.29z"/>
<path class="st0" d="M25.25,144.78c0.11-0.02,0.21-0.04,0.32-0.07c0.02,0.18,0.04,0.36,0.07,0.54c-0.14-0.02-0.34,0.01-0.4-0.07
	C25.18,145.11,25.24,144.92,25.25,144.78z"/>
<path class="st0" d="M344.95,326.27c-0.18,0.03-0.37,0.06-0.56,0.09c0.01-0.12-0.02-0.32,0.04-0.35c0.17-0.08,0.37-0.09,0.55-0.13
	C344.97,326,344.96,326.12,344.95,326.27z"/>
<path class="st0" d="M202.02,383.91c-0.02,0.14,0,0.34-0.09,0.4c-0.08,0.06-0.33,0.01-0.39-0.07c-0.06-0.08,0.03-0.27,0.05-0.4
	C201.74,383.86,201.88,383.89,202.02,383.91z"/>
<path class="st0" d="M390.4,178c-0.14-0.02-0.28-0.05-0.43-0.07c0.02-0.14,0-0.35,0.09-0.41c0.08-0.06,0.27,0.03,0.41,0.05
	C390.45,177.72,390.43,177.86,390.4,178z"/>
<polygon class="st0" points="61.12,316.92 60.93,317.22 60.77,317 "/>
<path class="st0" d="M184.08,202.5c-1.79-1.04-3.19-1.85-4.57-2.66c1.4-2.76,4.5-4.94,0.51-7.85c-0.94,0.96-1.85,1.88-2.76,2.8
	c-0.26-0.2-0.51-0.39-0.77-0.59c0.63-0.88,1.26-1.76,1.82-2.55c-1.47-0.6-3.02-1.24-4.58-1.88c0.08-0.3,0.16-0.59,0.24-0.89
	c2.02-0.07,4.09-0.44,6.05-0.11c2.01,0.33,3.9,1.35,6.19,2.2c-0.66,2.03,2.84,5.41-2.11,6.79
	C183.74,197.87,184.07,200.42,184.08,202.5z"/>
<path class="st0" d="M196.81,187.71c-1.2,7.16-1.44,7.59-3.02,6.7c-1.58-0.89-4.04-3.15-3.75-3.9
	C191.03,187.91,193.35,186.41,196.81,187.71z"/>
<polygon class="st0" points="177.94,198.67 177.63,198.76 177.84,198.51 "/>
<path class="st0" d="M78.74,216.88c-0.69-0.24-1.37-0.49-2.06-0.74c0.22-0.3,0.43-0.61,0.65-0.91c0.46,0.58,0.92,1.16,1.38,1.75
	L78.74,216.88z"/>
<path class="st0" d="M49.66,192.02c0.41,0.23,0.81,0.47,1.22,0.7c-0.46,0.2-0.93,0.4-1.39,0.6
	C49.55,192.89,49.6,192.46,49.66,192.02z"/>
<path class="st0" d="M48.82,223.82c0.13,0.03,0.33,0.03,0.38,0.11c0.06,0.09-0.02,0.26-0.04,0.4c-0.13-0.03-0.33-0.03-0.38-0.11
	C48.72,224.14,48.8,223.96,48.82,223.82z"/>
<path class="st0" d="M230.28,233.61c-2.45,2.19-4.61,4.12-6.78,6.06c-0.21-0.23-0.42-0.46-0.62-0.68c0.58-1.95,1.15-3.91,1.89-6.4
	C225.72,232.75,227.59,233.1,230.28,233.61z"/>
<path class="st0" d="M215.96,251.8c-0.1-0.02-0.27-0.01-0.33-0.08c-0.06-0.08,0.01-0.24,0.02-0.37c0.12,0.03,0.3,0.01,0.35,0.09
	C216.06,251.52,215.98,251.68,215.96,251.8z"/>
<path class="st0" d="M215.85,186.01c-4.45,2.23-7.29,0.21-7.96-6.11c2.33,2.11,4.19,3.8,6.2,5.62c-0.28-0.87-0.54-1.66-0.96-2.95
	C214.23,183.97,215.02,184.97,215.85,186.01z"/>
<path class="st0" d="M181.85,170.15c-0.05,0.23-0.1,0.46-0.14,0.68c-0.31-0.08-0.63-0.15-0.94-0.23c0.11-0.22,0.17-0.53,0.35-0.62
	C181.27,169.9,181.55,170.07,181.85,170.15z"/>
<path class="st0" d="M202.34,184.21c0.52,0.27,1.03,0.55,1.55,0.82c-0.09,0.13-0.18,0.26-0.27,0.39c-0.42-0.43-0.84-0.86-1.27-1.29
	L202.34,184.21z"/>
<path class="st0" d="M251.98,339.45c0.9,0.82,2.28,1.5,2.56,2.49c0.21,0.77-0.94,1.92-1.91,3.67c-0.78-2.47-1.24-3.95-1.71-5.42
	C251.27,339.94,251.63,339.7,251.98,339.45z"/>
<path class="st0" d="M247.13,165.47c1.14,1.26,2.28,2.52,3.42,3.78c-0.17,0.32-0.34,0.64-0.52,0.96c-1.78-0.32-3.57-0.65-5.61-1.02
	c-0.12-1.17-0.24-2.38-0.39-3.81c1.27,0.05,2.21,0.08,3.14,0.12L247.13,165.47z"/>
<path class="st0" d="M210.23,338.05c1.6-0.45,3.21-0.91,5.64-1.6c-0.6,1.52-1.11,2.81-1.86,4.69c-1.12-0.49-2.56-1.13-4-1.76
	C210.09,338.94,210.16,338.5,210.23,338.05z"/>
<path class="st0" d="M214.53,357.81c-0.17,0.53-0.35,1.07-0.52,1.6c-1.19-0.59-2.39-1.18-3.58-1.77
	C211.8,357.7,213.17,357.76,214.53,357.81z"/>
<path class="st0" d="M215.75,334.82c-0.59-0.11-1.06-0.07-1.23-0.27c-0.18-0.21-0.07-0.67-0.09-1.02c0.38,0.02,0.83-0.08,1.12,0.09
	C215.73,333.73,215.67,334.24,215.75,334.82z"/>
<path class="st0" d="M177.61,345.96c0.81-1.7,1.61-3.41,2.42-5.11c0.74,0.66,2.21,1.52,2.09,1.94c-0.43,1.54-1.39,2.92-2.16,4.37
	C179.18,346.75,178.4,346.35,177.61,345.96z"/>
<path class="st0" d="M348.88,207.48c-2.38,0.62-4.76,1.24-7.13,1.86c-0.16-0.38-0.32-0.76-0.48-1.14c2.72-1.74,5.45-3.48,8.18-5.22
	c3.07,1.61,1.47,3.08-0.12,4.55C349.18,207.51,349.03,207.49,348.88,207.48z"/>
<path class="st0" d="M349.32,207.53c-0.12,0.21-0.24,0.41-0.36,0.62c-0.03-0.22-0.05-0.45-0.08-0.67
	C349.03,207.49,349.18,207.51,349.32,207.53z"/>
<path class="st0" d="M360.26,191.33c0.35,0.28,0.71,0.56,1.06,0.85c-0.34,0.16-0.68,0.32-1.01,0.49
	C360.3,192.23,360.28,191.78,360.26,191.33z"/>
<path class="st0" d="M119.39,34.04c-0.33,0.03-0.67,0.06-1,0.08c0.03-0.13,0.05-0.26,0.08-0.39
	C118.77,33.84,119.08,33.94,119.39,34.04L119.39,34.04z"/>
<path class="st0" d="M93.62,50.71c0.27,0.21,0.54,0.43,0.81,0.64c-0.29,0.16-0.58,0.33-0.87,0.49
	C93.58,51.47,93.6,51.09,93.62,50.71z"/>
<path class="st0" d="M51.51,83.44c0.48-0.42,0.95-0.83,1.43-1.25c2.42-0.95,4.84-1.9,7.26-2.84c0.15,0.35,0.31,0.7,0.46,1.05
	c-1.89,1.5-3.77,2.99-5.74,4.55C53.8,84.45,52.65,83.94,51.51,83.44z"/>
<path class="st0" d="M54.32,245.33c2.14,5.77,1.97,6.15-2.61,6.42C52.52,249.74,53.26,247.93,54.32,245.33z"/>
<path class="st0" d="M312.03,138.86c-0.48,1.07-0.54,1.55-0.79,1.67c-0.23,0.11-0.79-0.06-0.94-0.29c-0.13-0.2-0.01-0.77,0.19-0.94
	C310.78,139.08,311.24,139.07,312.03,138.86z"/>
<path class="st0" d="M289.92,298.69c1.69-0.9,3.38-1.81,5.06-2.71c0.31,0.65,0.62,1.29,0.93,1.94c-1.79,0.69-3.57,1.38-5.36,2.07
	C290.33,299.56,290.12,299.13,289.92,298.69z"/>
<path class="st0" d="M383.2,161.26c-0.73,0.41-1.46,0.82-2.19,1.24c-0.12-0.17-0.24-0.34-0.35-0.51c0.68-0.47,1.35-0.93,2.03-1.4
	C382.86,160.8,383.03,161.03,383.2,161.26z"/>
<path class="st0" d="M386.81,151.86c-0.59-0.08-1.18-0.17-1.77-0.25c0.12-0.23,0.28-0.67,0.34-0.66c0.5,0.12,0.98,0.32,1.47,0.5
	C386.85,151.45,386.81,151.86,386.81,151.86z"/>
<path class="st0" d="M381.98,151.24c0.11-0.03,0.22-0.05,0.32-0.08c-0.04,0.17-0.08,0.35-0.13,0.52c-0.1-0.04-0.26-0.06-0.28-0.13
	C381.87,151.47,381.95,151.34,381.98,151.24z"/>
<path class="st0" d="M87.54,256.95c0.55-0.1,1.1-0.21,1.66-0.31c0.05,0.34,0.1,0.68,0.16,1.03c-0.59-0.02-1.18-0.03-1.76-0.05
	C87.57,257.39,87.55,257.17,87.54,256.95z"/>
<path class="st0" d="M173.48,160.45c0.23-0.05,0.53-0.21,0.66-0.12c0.18,0.13,0.24,0.44,0.35,0.68c-0.28,0.07-0.57,0.14-0.85,0.22
	C173.59,160.97,173.54,160.72,173.48,160.45z"/>
<path class="st0" d="M309.3,50.39c0.08-0.02,0.18-0.04,0.27-0.06c0.01,0.15,0.03,0.3,0.04,0.45c-0.12-0.01-0.23-0.03-0.35-0.04
	C309.28,50.62,309.29,50.51,309.3,50.39z"/>
<path class="st0" d="M342.5,174.74c-0.26,0.06-0.65,0.24-0.73,0.16c-0.21-0.25-0.3-0.62-0.43-0.94c0.36,0,0.73-0.05,1.08,0.04
	C342.5,174.02,342.47,174.48,342.5,174.74z"/>
<path class="st0" d="M197.71,203.08c0.26-0.23,0.51-0.47,0.77-0.7c0,0.27,0,0.54-0.01,0.81
	C198.21,203.17,197.96,203.14,197.71,203.08z"/>
<path class="st0" d="M288.29,30.18c-0.31,0.3-0.57,0.54-0.83,0.79c-0.13-0.17-0.38-0.35-0.35-0.49c0.04-0.26,0.21-0.54,0.41-0.69
	C287.6,29.72,287.92,29.98,288.29,30.18z"/>
<path class="st0" d="M234.45,162.2c-0.09-0.57-0.18-1.15-0.27-1.72c0.24,0.08,0.47,0.15,0.71,0.23c-0.18,0.5-0.35,0.99-0.53,1.49
	L234.45,162.2z"/>
<path class="st0" d="M98.33,80.28c-0.27-0.21-0.54-0.42-0.82-0.63c0.3-0.13,0.6-0.26,0.9-0.39C98.39,79.6,98.36,79.94,98.33,80.28z"
	/>
<path class="st0" d="M232.71,338.95c0.25,0.03,0.5,0.06,0.75,0.08c-0.11,0.14-0.22,0.29-0.34,0.43c-0.13-0.21-0.25-0.41-0.38-0.62
	L232.71,338.95z"/>
</svg>
